<svg xmlns="http://www.w3.org/2000/svg" width="760" height="764" viewBox="0 0 760 764" font-family="-apple-system,BlinkMacSystemFont,Segoe UI,Helvetica,Arial,sans-serif" role="img" aria-label="Clock stress: the loopback tones">
<style>:root{--surface:#1a1a19;--primary:#ffffff;--secondary:#c3c2b7;--muted:#8a8985;--grid:#33322f;--s1:#3987e5;--s2:#d95926;--s3:#2bb17f;--s4:#a07de8}</style>
<rect width="760" height="764" style="fill:var(--surface)"/>
<text x="66" y="22" font-size="15" font-weight="600" style="fill:var(--primary)">Clock stress: the loopback tones</text>
<text x="66" y="62" font-size="13" font-weight="600" style="fill:var(--primary)">433.92 MHz: tone +0.12 Hz from where it was sent, worst spur -57.5 dBc</text>
<line x1="66" y1="217.0" x2="736" y2="217.0" style="stroke:var(--grid)" stroke-width="1"/>
<text x="58" y="221.0" text-anchor="end" font-size="11.5" style="fill:var(--secondary)">−100</text>
<line x1="66" y1="190.9" x2="736" y2="190.9" style="stroke:var(--grid)" stroke-width="1"/>
<text x="58" y="194.9" text-anchor="end" font-size="11.5" style="fill:var(--secondary)">−80</text>
<line x1="66" y1="164.8" x2="736" y2="164.8" style="stroke:var(--grid)" stroke-width="1"/>
<text x="58" y="168.8" text-anchor="end" font-size="11.5" style="fill:var(--secondary)">−60</text>
<line x1="66" y1="138.7" x2="736" y2="138.7" style="stroke:var(--grid)" stroke-width="1"/>
<text x="58" y="142.7" text-anchor="end" font-size="11.5" style="fill:var(--secondary)">−40</text>
<line x1="66" y1="112.6" x2="736" y2="112.6" style="stroke:var(--grid)" stroke-width="1"/>
<text x="58" y="116.6" text-anchor="end" font-size="11.5" style="fill:var(--secondary)">−20</text>
<line x1="66" y1="86.5" x2="736" y2="86.5" style="stroke:var(--grid)" stroke-width="1"/>
<text x="58" y="90.5" text-anchor="end" font-size="11.5" style="fill:var(--secondary)">0</text>
<line x1="121.8" y1="230" x2="121.8" y2="235" style="stroke:var(--muted)" stroke-width="1"/>
<text x="121.8" y="249" text-anchor="middle" font-size="11.5" style="fill:var(--secondary)">−2</text>
<line x1="261.4" y1="230" x2="261.4" y2="235" style="stroke:var(--muted)" stroke-width="1"/>
<text x="261.4" y="249" text-anchor="middle" font-size="11.5" style="fill:var(--secondary)">−1</text>
<line x1="401.0" y1="230" x2="401.0" y2="235" style="stroke:var(--muted)" stroke-width="1"/>
<text x="401.0" y="249" text-anchor="middle" font-size="11.5" style="fill:var(--secondary)">0</text>
<line x1="540.6" y1="230" x2="540.6" y2="235" style="stroke:var(--muted)" stroke-width="1"/>
<text x="540.6" y="249" text-anchor="middle" font-size="11.5" style="fill:var(--secondary)">1</text>
<line x1="680.2" y1="230" x2="680.2" y2="235" style="stroke:var(--muted)" stroke-width="1"/>
<text x="680.2" y="249" text-anchor="middle" font-size="11.5" style="fill:var(--secondary)">2</text>
<line x1="66" y1="230" x2="736" y2="230" style="stroke:var(--muted)" stroke-width="1"/>
<text x="401" y="267" text-anchor="middle" font-size="12" style="fill:var(--secondary)">offset from the LO (MHz)</text>
<text x="16" y="155" text-anchor="middle" font-size="12" style="fill:var(--secondary)" transform="rotate(-90 16 155)">dBc</text>
<clipPath id="c34"><rect x="66" y="78" width="670" height="154"/></clipPath>
<g clip-path="url(#c34)">
<polyline points="66.1,169.6 66.8,169.0 67.2,170.4 67.7,168.5 67.9,169.7 68.4,170.2 68.7,168.5 69.3,170.2 69.7,168.8 70.0,169.1 70.8,170.6 71.2,169.9 71.4,171.2 72.0,169.5 72.4,171.2 72.7,168.3 73.2,169.1 73.8,169.7 74.2,170.7 74.8,169.3 75.1,170.9 75.7,168.2 76.2,169.4 76.6,170.7 77.1,170.1 77.3,170.2 77.9,169.5 78.0,170.3 78.9,171.0 79.0,171.0 79.4,169.0 79.9,169.1 80.5,171.6 81.0,170.4 81.5,169.6 81.7,171.5 82.1,171.0 82.9,171.2 83.3,171.0 83.7,170.5 84.0,169.4 84.5,170.2 84.9,169.3 85.4,169.4 85.7,170.9 86.3,171.5 86.6,171.1 87.2,171.1 87.6,170.5 88.2,169.8 88.3,169.4 88.8,170.5 89.3,170.4 89.9,170.7 90.1,171.0 90.9,170.6 91.3,170.6 91.6,168.5 91.9,169.2 92.5,170.8 92.9,170.9 93.5,172.1 93.6,168.7 94.2,171.6 94.9,170.2 95.2,168.4 95.6,170.7 96.0,170.0 96.7,169.7 96.7,171.1 97.4,171.0 98.0,171.5 98.4,170.5 98.6,170.9 99.1,170.4 99.4,170.5 100.2,172.0 100.6,170.5 101.0,169.1 101.5,170.9 101.7,170.9 102.3,171.9 102.7,173.1 103.0,170.9 103.4,172.0 104.1,171.1 104.3,171.1 105.0,171.9 105.3,171.3 105.8,172.5 106.1,172.3 106.6,171.0 107.0,171.4 107.8,173.7 107.9,171.3 108.3,172.1 109.0,173.0 109.2,170.4 109.7,172.0 110.5,172.5 110.7,172.2 111.0,172.0 111.7,172.5 112.1,170.8 112.5,169.6 112.7,172.6 113.5,172.8 113.8,171.6 114.2,172.2 114.6,172.6 115.1,173.2 115.5,173.8 116.1,172.6 116.3,172.4 117.0,172.6 117.2,172.4 117.8,172.1 118.2,172.2 118.7,173.7 119.0,172.7 119.5,173.0 119.9,172.3 120.4,172.6 121.1,172.1 121.3,171.6 121.8,157.3 122.3,172.1 122.6,172.4 123.1,171.5 123.4,174.8 124.1,172.7 124.3,173.4 125.1,170.9 125.2,173.3 125.9,174.0 126.3,173.7 126.8,173.7 127.1,174.4 127.4,172.3 128.2,173.9 128.5,170.6 129.0,174.5 129.2,173.7 130.0,173.3 130.3,175.2 130.9,173.7 131.3,174.1 131.5,173.5 132.1,174.4 132.3,173.2 133.0,174.2 133.4,174.0 133.6,172.3 134.2,173.0 134.8,175.2 135.0,174.5 135.7,173.8 136.0,174.7 136.4,174.4 137.0,175.4 137.4,173.4 137.8,175.4 138.4,174.9 138.6,175.0 139.4,173.9 139.7,175.1 140.1,173.4 140.4,175.9 140.7,173.9 141.2,175.9 142.0,173.7 142.5,175.9 142.6,174.6 143.0,175.0 143.6,176.5 144.2,176.6 144.5,173.4 145.0,176.3 145.2,176.6 145.6,177.0 146.2,176.3 146.7,175.6 147.3,176.2 147.8,176.7 148.2,175.6 148.5,175.8 148.8,177.2 149.4,177.8 149.8,161.6 150.2,175.9 150.7,176.4 151.3,175.4 151.5,177.0 151.8,177.4 152.3,177.6 152.9,175.5 153.6,177.4 153.7,176.8 154.4,178.0 154.6,178.1 155.2,177.5 155.6,177.3 155.9,178.9 156.5,177.7 157.0,178.0 157.6,177.8 157.7,178.1 158.3,176.6 158.8,177.3 159.2,177.6 159.7,177.8 160.2,177.7 160.4,178.0 160.9,178.6 161.4,179.1 161.6,179.0 162.2,179.5 162.9,179.1 163.1,177.1 163.5,178.8 164.0,178.0 164.5,177.4 165.0,179.2 165.3,180.1 165.9,179.0 166.1,178.0 166.8,179.0 167.1,177.3 167.6,178.1 168.1,179.7 168.3,179.5 169.1,180.7 169.5,179.1 169.6,177.8 170.3,178.9 170.7,178.9 171.3,179.6 171.8,179.3 172.3,179.0 172.5,180.4 172.9,178.0 173.3,179.8 173.7,181.0 174.2,178.5 174.5,180.7 175.2,180.6 175.4,181.4 176.1,180.9 176.6,181.2 177.0,180.7 177.4,180.9 177.7,179.3 178.3,179.9 178.9,182.2 179.4,181.2 179.8,180.1 180.1,181.2 180.4,182.8 180.8,182.0 181.2,181.2 181.7,182.3 182.5,182.8 182.7,182.2 183.1,182.4 183.7,182.9 184.1,182.0 184.6,181.8 185.1,182.2 185.3,184.0 185.6,183.9 186.4,183.1 187.0,182.4 187.1,183.2 187.6,183.9 188.0,184.2 188.5,184.5 188.7,184.2 189.6,182.2 189.9,184.3 190.2,184.8 190.6,183.5 191.2,184.8 191.5,182.5 192.2,183.2 192.3,184.8 192.8,184.5 193.5,184.2 193.8,183.5 194.3,184.0 194.7,184.4 195.1,185.0 195.5,185.6 195.9,184.7 196.6,184.7 196.9,184.7 197.3,185.3 197.7,185.4 198.3,186.9 198.9,187.4 199.1,185.9 199.5,185.6 199.9,185.0 200.6,186.8 200.9,187.0 201.5,184.8 201.7,187.4 202.1,187.0 202.9,185.7 203.3,186.4 203.6,186.0 204.3,187.0 204.3,186.1 205.1,185.8 205.6,175.9 205.8,186.9 206.5,187.1 206.8,186.5 207.1,187.8 207.8,188.3 208.1,187.8 208.4,187.5 208.8,188.5 209.3,188.9 210.0,188.1 210.4,189.0 210.6,189.3 211.2,188.8 211.8,189.0 212.0,187.8 212.7,188.1 212.9,189.3 213.4,190.4 213.7,188.1 214.2,187.2 214.7,189.7 215.0,189.1 215.6,189.1 216.1,189.7 216.4,190.8 216.8,188.9 217.4,189.9 218.0,191.1 218.1,191.6 218.6,190.0 219.3,190.9 219.6,189.7 220.1,190.2 220.4,190.1 220.9,191.0 221.6,190.0 221.7,191.1 222.2,191.2 222.7,190.9 223.3,191.5 223.6,189.5 224.2,191.4 224.4,190.0 224.9,193.0 225.5,191.9 226.0,191.2 226.5,191.3 226.6,190.8 227.2,192.9 227.9,191.0 228.0,192.5 228.5,191.4 229.1,191.6 229.3,192.6 229.9,192.5 230.4,193.9 230.8,191.2 231.0,192.6 231.8,193.4 232.2,191.4 232.5,189.9 233.1,193.5 233.3,192.6 234.0,193.4 234.5,192.5 234.6,193.6 235.4,192.4 235.7,193.5 236.0,193.7 236.5,193.4 237.2,194.6 237.6,193.7 238.0,194.4 238.3,192.5 238.9,192.9 239.2,193.3 239.4,194.2 240.3,194.2 240.7,194.2 240.9,195.8 241.4,194.5 241.9,195.1 242.5,194.6 242.6,195.2 243.4,192.2 243.7,195.7 244.2,193.6 244.4,194.6 245.0,195.9 245.3,196.1 245.9,195.7 246.3,195.0 246.8,196.2 247.2,194.0 247.5,196.7 248.0,195.1 248.6,194.1 249.2,196.3 249.7,195.3 249.7,193.1 250.3,196.8 250.9,196.7 251.2,197.3 251.7,196.5 252.0,195.9 252.4,195.8 252.9,195.8 253.5,196.7 253.7,195.7 254.5,196.4 254.8,196.6 255.3,196.4 255.9,195.8 256.2,196.3 256.4,197.4 257.2,195.6 257.5,194.9 257.7,196.5 258.2,196.2 258.9,197.6 259.2,197.3 259.6,197.0 260.1,197.5 260.5,198.1 260.8,196.1 261.4,144.7 262.0,196.9 262.3,196.9 262.8,197.4 263.1,196.6 263.8,197.1 264.1,197.7 264.6,194.9 264.8,197.5 265.6,197.0 265.8,197.3 266.3,197.1 266.6,196.3 267.4,197.7 267.8,197.4 267.9,196.4 268.6,196.2 268.8,197.8 269.5,196.6 269.8,196.2 270.5,196.4 270.7,195.2 271.4,197.8 271.7,196.3 272.3,195.4 272.4,197.8 273.0,197.9 273.6,198.5 273.7,196.6 274.6,196.0 274.9,197.4 275.3,195.6 275.7,196.4 276.3,197.0 276.7,197.2 276.8,195.9 277.6,198.0 278.0,196.6 278.2,198.5 278.7,195.6 279.3,196.9 279.9,196.1 280.0,196.9 280.7,197.2 281.0,195.6 281.5,197.0 281.8,196.9 282.5,197.0 282.7,194.6 283.2,197.9 283.8,198.0 284.1,195.9 284.5,196.9 285.0,197.2 285.5,197.1 285.9,196.6 286.2,197.0 286.7,196.2 287.3,197.6 287.7,197.4 288.0,196.4 288.5,196.9 289.0,197.7 289.3,193.7 289.7,194.9 290.4,196.0 290.9,197.1 291.2,195.5 291.5,196.3 292.0,196.9 292.5,194.9 293.2,197.9 293.3,196.1 294.1,196.4 294.6,194.4 294.9,198.8 295.3,198.1 295.6,195.6 296.0,196.8 296.4,194.9 297.2,195.9 297.3,197.4 298.0,195.5 298.4,197.2 298.7,197.3 299.1,193.9 299.8,196.8 300.0,198.5 300.5,196.1 301.2,195.9 301.3,196.1 301.7,196.1 302.3,195.6 302.6,196.3 303.3,196.0 303.7,194.7 304.2,194.6 304.5,196.1 305.1,195.2 305.6,195.2 305.9,194.3 306.5,196.1 306.9,197.5 307.2,196.6 307.5,195.3 308.3,194.9 308.8,195.6 309.2,195.7 309.5,195.8 309.9,195.3 310.2,195.7 310.7,194.6 311.2,195.3 311.8,196.4 312.3,196.6 312.7,196.5 313.2,196.6 313.4,195.8 313.7,195.6 314.6,196.8 315.0,196.3 315.2,197.1 315.6,194.3 316.2,196.0 316.6,196.4 317.3,195.7 317.4,195.2 317.9,194.7 318.3,195.7 318.8,196.5 319.5,196.7 319.6,196.6 320.3,195.4 320.5,194.6 321.2,193.6 321.4,195.3 322.0,196.3 322.3,196.6 322.8,194.8 323.3,196.1 323.6,196.7 324.1,194.6 324.6,197.2 325.3,195.9 325.4,195.7 325.9,196.0 326.4,195.9 326.7,196.1 327.3,195.6 327.6,196.0 328.1,195.9 328.7,193.9 328.9,195.7 329.4,197.2 330.1,196.6 330.5,196.3 330.7,196.7 331.3,196.7 331.5,195.6 332.2,197.4 332.4,196.8 333.1,197.0 333.6,196.9 333.9,197.0 334.5,194.9 334.8,197.1 335.4,196.9 335.7,196.0 336.3,196.8 336.7,196.7 337.3,196.0 337.7,196.0 337.7,195.6 338.3,196.5 338.9,194.9 339.1,195.4 339.5,196.9 340.4,196.9 340.7,196.8 340.9,196.2 341.5,197.8 341.9,197.0 342.4,196.2 342.8,196.5 343.2,196.3 343.6,197.0 344.1,196.4 344.6,198.0 345.1,195.1 345.6,197.0 345.9,196.5 346.2,197.5 346.7,197.2 347.2,195.2 347.7,197.0 348.2,197.0 348.8,196.9 349.0,196.8 349.7,196.7 350.0,197.6 350.4,197.1 350.7,196.2 351.3,196.9 351.8,194.8 352.2,196.1 352.7,194.5 353.1,196.2 353.3,196.9 353.8,196.2 354.5,197.0 354.9,194.2 355.2,196.7 355.8,197.2 356.4,195.2 356.6,197.3 356.9,196.5 357.5,197.0 358.0,196.7 358.6,196.1 359.0,197.0 359.3,197.9 359.7,196.2 360.2,196.8 360.7,197.1 361.2,196.1 361.5,196.1 362.2,198.1 362.6,195.8 362.8,197.0 363.1,196.7 363.8,196.9 364.3,196.7 364.7,197.7 365.2,196.6 365.4,196.3 365.9,197.0 366.6,197.0 366.9,197.7 367.1,197.8 368.0,194.3 368.4,196.5 368.6,197.4 368.9,196.5 369.5,196.8 369.8,196.6 370.2,197.7 371.0,196.5 371.4,197.4 371.7,198.4 372.3,197.1 372.5,195.9 373.3,195.0 373.4,196.6 373.9,197.2 374.4,198.1 374.9,197.3 375.4,194.8 375.6,197.4 376.1,196.5 376.8,196.6 377.2,196.9 377.3,197.1 378.1,195.1 378.6,198.0 379.0,198.2 379.5,197.8 379.8,195.4 380.1,196.9 380.6,197.1 381.2,196.1 381.6,196.7 382.0,197.9 382.4,196.9 382.8,196.2 383.3,195.8 383.7,198.1 384.4,196.6 384.6,197.0 385.0,197.3 385.3,196.9 385.9,196.0 386.6,197.7 387.0,197.0 387.2,196.5 387.5,195.1 388.0,197.5 388.4,197.4 389.1,197.7 389.4,198.1 389.9,197.2 390.4,195.2 391.0,196.7 391.3,196.5 391.6,196.8 392.3,197.1 392.7,196.5 393.3,196.8 393.7,196.0 394.1,196.3 394.5,197.5 394.7,195.8 395.4,195.1 395.9,194.2 396.2,195.4 396.9,195.7 396.9,194.9 397.6,195.1 398.2,193.3 398.5,192.7 399.0,193.8 399.2,189.4 399.6,192.6 400.3,189.3 400.9,185.6 401.0,165.1 401.4,188.4 402.0,190.9 402.2,192.7 402.7,193.2 403.2,194.4 403.9,193.8 404.1,195.1 404.5,195.8 405.1,195.9 405.5,193.5 405.8,194.8 406.2,196.4 406.9,197.0 407.4,195.1 407.8,195.1 408.2,196.1 408.8,196.4 408.9,196.5 409.7,196.6 409.9,197.4 410.4,196.7 410.8,194.6 411.2,196.2 411.6,195.4 412.4,197.1 412.7,194.4 413.0,197.2 413.4,196.4 414.0,196.1 414.7,196.9 414.7,197.0 415.5,196.3 415.8,195.8 416.4,196.8 416.5,196.5 417.0,195.2 417.7,195.7 418.2,196.8 418.4,197.5 418.8,197.0 419.5,198.5 420.0,196.7 420.2,196.9 420.5,196.9 421.0,196.1 421.5,196.5 421.8,195.7 422.3,195.5 423.0,196.4 423.5,196.9 423.9,195.0 424.3,197.3 424.6,197.6 424.9,196.0 425.5,197.3 425.9,197.2 426.3,195.7 426.8,198.4 427.2,196.3 427.6,195.3 428.4,197.3 428.6,195.8 428.9,190.6 429.7,196.8 430.1,196.8 430.4,196.8 430.9,198.1 431.3,198.8 431.7,197.0 432.1,195.9 432.8,197.4 433.1,197.0 433.7,196.4 433.9,197.5 434.5,197.1 434.9,196.7 435.3,195.2 436.0,196.3 436.4,196.9 436.5,197.0 437.3,196.5 437.7,196.0 437.8,196.7 438.7,196.6 438.7,197.0 439.2,196.5 439.9,196.1 440.4,193.5 440.6,197.0 441.1,197.1 441.6,196.3 442.0,195.3 442.4,196.1 443.0,197.3 443.4,196.1 443.7,196.2 444.2,195.8 444.7,195.7 445.3,195.9 445.8,195.9 446.0,197.3 446.3,197.2 446.9,196.4 447.2,197.1 447.7,195.9 448.2,198.0 448.8,196.8 449.2,197.0 449.5,196.2 450.2,196.8 450.3,197.0 451.1,196.5 451.3,197.1 451.8,196.7 452.3,195.4 452.7,195.9 453.3,196.6 453.6,195.9 454.1,195.0 454.4,196.5 454.8,196.1 455.3,197.0 455.9,195.9 456.1,196.1 456.6,196.3 457.0,196.7 457.5,195.5 458.2,196.4 458.5,197.3 458.9,196.8 459.4,196.0 460.0,196.1 460.3,196.8 460.5,195.4 461.3,196.0 461.7,195.5 462.0,194.9 462.4,196.8 463.0,195.2 463.2,195.5 464.0,196.7 464.2,196.5 464.5,196.1 464.9,195.5 465.4,196.7 465.9,195.7 466.4,195.4 467.0,195.5 467.5,197.2 468.0,195.4 468.4,195.0 468.6,195.6 469.0,195.5 469.4,195.0 469.9,196.2 470.4,196.2 471.0,196.7 471.5,196.4 471.9,194.5 472.4,195.9 472.5,196.4 473.3,196.9 473.5,196.7 473.9,196.7 474.4,194.9 474.9,197.1 475.4,195.2 475.8,196.4 476.4,197.3 476.5,194.4 477.2,195.8 477.5,196.4 478.1,196.7 478.5,197.4 478.7,196.8 479.5,195.1 479.8,196.3 480.5,196.0 480.9,196.0 481.3,195.2 481.7,195.9 481.9,195.7 482.3,196.0 482.9,194.0 483.2,195.9 483.6,196.8 484.4,196.4 484.7,195.6 485.1,197.1 485.5,193.6 486.2,196.2 486.4,194.2 486.8,195.9 487.2,196.1 487.8,195.2 488.2,195.3 488.6,197.5 489.3,195.4 489.6,195.5 490.1,196.6 490.6,194.6 491.1,196.3 491.2,197.8 491.8,195.7 492.2,196.6 492.8,194.4 493.0,197.1 493.6,196.0 493.9,196.2 494.5,195.7 494.9,196.5 495.5,197.2 495.9,196.7 496.2,196.0 496.7,196.1 497.4,196.8 497.8,197.0 498.2,197.5 498.4,196.3 498.9,196.0 499.3,196.4 500.0,196.4 500.0,196.9 500.7,196.6 501.1,197.2 501.8,195.6 502.2,195.4 502.3,195.1 503.0,196.9 503.4,195.2 504.0,197.1 504.2,196.5 504.8,196.2 505.1,197.2 505.8,197.3 506.1,196.2 506.3,196.8 506.8,197.0 507.6,195.5 507.8,196.0 508.4,195.4 508.9,194.4 509.2,194.3 509.6,195.6 510.2,195.9 510.6,195.4 510.8,195.6 511.4,197.0 512.0,193.9 512.1,195.6 512.7,190.4 513.0,198.1 513.5,196.4 514.2,195.8 514.4,196.3 514.8,195.4 515.2,197.1 515.8,195.9 516.3,197.0 516.7,195.1 517.1,196.0 517.8,196.2 518.0,195.3 518.6,197.3 518.9,197.0 519.2,196.7 519.9,196.1 520.1,197.9 520.9,195.8 521.3,195.1 521.8,197.6 522.1,197.7 522.6,196.8 523.0,196.8 523.3,197.7 523.9,195.8 524.1,197.7 524.8,198.2 525.3,196.4 525.4,196.7 526.0,197.4 526.5,196.7 526.9,197.9 527.4,195.5 527.9,197.5 528.4,197.3 528.5,197.9 529.1,197.5 529.6,197.4 530.0,195.2 530.4,195.9 530.8,196.3 531.3,195.6 531.6,197.5 532.4,197.1 532.9,196.5 533.0,196.6 533.8,196.1 533.9,195.7 534.4,196.2 534.9,196.7 535.2,197.1 536.0,196.6 536.3,196.7 536.8,197.4 537.1,196.6 537.7,195.7 538.0,198.0 538.7,196.5 539.0,196.8 539.5,197.5 540.0,197.3 540.4,195.4 540.6,86.5 541.1,196.2 541.5,195.0 542.3,196.4 542.7,195.5 542.8,196.4 543.3,197.0 543.9,196.0 544.2,196.2 544.9,194.3 545.3,196.8 545.6,197.0 546.1,196.8 546.3,196.0 546.9,195.7 547.6,196.2 547.7,196.5 548.4,195.8 548.6,196.5 549.2,195.5 549.5,195.8 550.0,196.1 550.4,195.9 551.1,194.6 551.5,196.4 552.1,195.8 552.1,196.6 552.9,194.6 553.3,195.2 553.6,193.7 554.1,193.3 554.3,194.5 554.8,196.1 555.4,193.9 556.1,195.7 556.2,194.6 556.7,193.0 557.1,195.1 557.5,193.6 558.0,194.0 558.6,194.0 558.9,195.0 559.4,194.5 559.9,195.3 560.4,194.4 560.7,193.0 561.3,194.8 561.8,193.4 562.2,193.7 562.5,194.7 562.9,194.0 563.6,193.7 564.0,194.5 564.2,194.0 564.9,194.0 565.3,194.3 565.6,193.8 566.2,194.6 566.5,193.8 567.0,193.5 567.6,194.9 567.7,194.2 568.5,188.5 568.9,192.2 569.3,191.9 569.6,192.8 570.2,194.2 570.4,193.0 571.2,191.8 571.2,192.1 571.8,192.0 572.3,191.7 572.8,192.3 573.3,192.2 573.9,193.1 574.1,191.3 574.4,190.4 574.8,191.8 575.4,192.5 575.7,192.1 576.1,191.7 576.7,190.5 577.4,191.1 577.8,190.2 577.9,191.6 578.4,191.4 579.0,191.7 579.6,189.4 579.6,191.2 580.1,190.0 580.8,190.9 581.3,191.7 581.5,189.1 581.9,191.4 582.7,189.5 583.0,188.6 583.3,188.6 584.1,190.1 584.3,190.3 584.9,187.6 585.2,189.8 585.5,189.6 586.1,189.5 586.5,188.7 586.9,189.7 587.5,187.6 587.7,189.3 588.1,189.3 588.6,187.6 589.1,188.6 589.6,187.8 590.2,187.8 590.6,190.1 591.2,186.8 591.4,188.2 592.0,189.6 592.5,187.7 592.6,188.7 593.3,187.1 593.5,187.3 593.9,188.5 594.7,186.6 595.2,185.5 595.3,185.9 596.0,187.7 596.4,185.9 596.8,185.8 597.0,186.0 597.5,186.3 598.1,186.4 598.4,185.7 599.2,186.0 599.6,186.6 599.7,187.1 600.4,186.5 600.6,185.9 601.2,185.4 601.8,186.8 601.9,183.7 602.7,185.8 603.1,184.2 603.6,185.0 604.0,185.9 604.2,186.3 604.6,186.5 605.1,185.8 605.8,186.8 606.2,185.3 606.4,184.9 607.1,184.5 607.5,184.3 608.0,183.2 608.4,185.2 608.7,184.7 609.2,183.5 609.8,184.6 610.2,185.6 610.3,185.6 611.2,184.0 611.3,184.4 611.7,184.0 612.1,184.1 612.9,184.0 613.2,183.9 613.6,183.5 613.9,181.8 614.6,183.8 614.8,182.5 615.6,181.6 616.0,183.0 616.1,183.2 616.9,182.7 617.2,182.1 617.5,182.4 617.9,183.4 618.5,183.0 618.9,181.5 619.6,182.7 619.7,181.2 620.3,181.0 620.8,182.4 621.2,181.6 621.6,182.1 622.1,181.4 622.4,180.8 623.2,180.6 623.6,181.2 623.9,180.4 624.2,180.4 624.9,181.6 625.2,181.1 625.5,180.2 626.3,182.0 626.4,181.5 626.8,181.5 627.6,181.0 627.9,179.4 628.3,181.0 629.0,181.5 629.2,179.2 629.6,179.6 629.9,179.7 630.7,178.5 631.1,180.6 631.4,178.6 632.0,178.3 632.4,178.8 632.8,178.7 633.4,179.6 633.9,178.7 634.0,177.8 634.5,177.8 635.2,177.9 635.5,178.1 635.9,179.8 636.3,178.7 636.9,177.8 637.4,179.8 637.5,178.5 638.1,180.0 638.6,178.6 639.1,178.2 639.3,179.6 639.9,178.7 640.4,176.5 640.7,179.6 641.3,179.1 641.8,177.0 641.9,177.0 642.4,177.6 643.2,177.2 643.3,177.2 643.9,179.6 644.3,178.8 644.7,178.7 645.4,177.8 645.6,177.8 645.9,176.3 646.8,176.9 647.2,176.7 647.6,179.1 647.8,175.7 648.2,177.3 648.6,178.0 649.4,176.0 649.9,176.7 650.0,176.8 650.5,175.8 651.1,176.9 651.4,175.7 652.1,176.2 652.2,163.4 652.8,177.2 653.1,173.6 653.9,176.7 654.1,176.4 654.4,176.6 654.9,175.9 655.3,177.1 656.0,176.5 656.4,175.3 656.8,176.6 657.4,176.1 657.6,176.3 658.3,175.9 658.6,175.3 658.9,175.4 659.3,175.9 660.0,172.7 660.5,175.2 660.6,176.5 661.5,174.5 661.5,176.2 662.3,174.9 662.5,174.8 662.9,176.4 663.5,174.8 664.0,174.1 664.5,173.8 664.7,174.6 665.5,173.7 665.9,175.1 666.1,173.8 666.5,175.4 667.2,172.3 667.5,173.2 668.1,174.8 668.4,173.0 668.7,175.8 669.2,172.6 669.8,172.6 670.0,173.7 670.6,174.3 671.2,173.1 671.7,173.6 671.8,175.2 672.2,173.4 672.8,173.7 673.4,173.4 673.5,172.6 674.0,172.8 674.5,174.1 674.9,172.9 675.4,173.3 675.9,170.3 676.2,173.8 677.0,172.8 677.3,172.8 677.5,171.1 677.9,173.5 678.5,173.5 679.0,173.9 679.5,173.0 679.7,173.2 680.2,150.9 681.0,171.6 681.4,172.3 681.9,173.6 682.3,174.6 682.5,172.7 683.1,172.9 683.6,172.6 683.7,172.8 684.3,172.2 684.7,172.3 685.1,172.0 685.9,172.0 685.9,171.3 686.4,173.8 687.2,172.2 687.4,171.0 687.8,173.1 688.3,172.5 688.7,172.1 689.4,171.1 689.7,171.5 690.1,171.1 690.5,172.2 690.9,172.7 691.4,171.2 691.8,170.7 692.3,172.0 692.9,170.9 693.1,171.8 693.7,172.6 694.2,171.2 694.5,170.8 695.2,171.1 695.4,170.4 695.8,172.2 696.4,171.0 696.7,170.6 697.5,171.5 697.6,171.3 698.3,170.4 698.8,170.6 699.1,171.6 699.6,171.0 700.0,171.2 700.4,170.9 700.8,171.8 701.4,171.3 701.5,170.4 702.0,170.3 702.5,170.7 703.2,170.9 703.7,169.7 703.8,170.9 704.4,171.7 704.8,171.5 705.1,171.9 705.5,171.3 706.2,170.2 706.6,170.7 706.9,170.4 707.4,170.1 707.9,169.2 708.2,168.3 709.0,171.0 709.3,170.8 709.6,171.1 710.0,170.9 710.6,170.7 711.1,170.3 711.5,168.6 711.9,170.2 712.3,171.5 713.0,170.2 713.4,170.9 713.9,170.0 714.4,168.4 714.8,169.7 715.2,170.8 715.7,171.9 716.2,170.4 716.3,171.1 716.8,168.4 717.4,170.0 717.9,169.6 718.1,171.0 718.8,169.6 719.2,170.0 719.4,169.0 720.0,171.8 720.5,170.6 720.9,169.5 721.3,170.1 721.6,169.8 722.2,170.5 722.6,170.4 723.3,168.1 723.5,170.5 724.0,169.3 724.2,168.9 725.0,170.4 725.5,169.7 725.9,170.0 726.3,169.6 726.7,168.8 727.0,169.2 727.6,169.9 728.0,167.3 728.3,170.0 729.0,169.2 729.1,170.7 729.8,168.9 730.4,170.6 730.4,171.1 731.1,170.4 731.6,171.0 731.8,168.9 732.4,169.3 732.8,169.5" fill="none" style="stroke:var(--s1)" stroke-width="2" stroke-linejoin="round" stroke-linecap="round"/>
<line x1="66" y1="158.3" x2="736" y2="158.3" style="stroke:var(--muted)" stroke-width="1" stroke-dasharray="3 3"/>
<text x="732" y="154.3" text-anchor="end" font-size="11" style="fill:var(--muted)">spur limit, -55 dBc</text>
</g>
<text x="66" y="304" font-size="13" font-weight="600" style="fill:var(--primary)">868 MHz: tone +0.12 Hz from where it was sent, worst spur -59.1 dBc</text>
<line x1="66" y1="459.0" x2="736" y2="459.0" style="stroke:var(--grid)" stroke-width="1"/>
<text x="58" y="463.0" text-anchor="end" font-size="11.5" style="fill:var(--secondary)">−100</text>
<line x1="66" y1="432.9" x2="736" y2="432.9" style="stroke:var(--grid)" stroke-width="1"/>
<text x="58" y="436.9" text-anchor="end" font-size="11.5" style="fill:var(--secondary)">−80</text>
<line x1="66" y1="406.8" x2="736" y2="406.8" style="stroke:var(--grid)" stroke-width="1"/>
<text x="58" y="410.8" text-anchor="end" font-size="11.5" style="fill:var(--secondary)">−60</text>
<line x1="66" y1="380.7" x2="736" y2="380.7" style="stroke:var(--grid)" stroke-width="1"/>
<text x="58" y="384.7" text-anchor="end" font-size="11.5" style="fill:var(--secondary)">−40</text>
<line x1="66" y1="354.6" x2="736" y2="354.6" style="stroke:var(--grid)" stroke-width="1"/>
<text x="58" y="358.6" text-anchor="end" font-size="11.5" style="fill:var(--secondary)">−20</text>
<line x1="66" y1="328.5" x2="736" y2="328.5" style="stroke:var(--grid)" stroke-width="1"/>
<text x="58" y="332.5" text-anchor="end" font-size="11.5" style="fill:var(--secondary)">0</text>
<line x1="121.8" y1="472" x2="121.8" y2="477" style="stroke:var(--muted)" stroke-width="1"/>
<text x="121.8" y="491" text-anchor="middle" font-size="11.5" style="fill:var(--secondary)">−2</text>
<line x1="261.4" y1="472" x2="261.4" y2="477" style="stroke:var(--muted)" stroke-width="1"/>
<text x="261.4" y="491" text-anchor="middle" font-size="11.5" style="fill:var(--secondary)">−1</text>
<line x1="401.0" y1="472" x2="401.0" y2="477" style="stroke:var(--muted)" stroke-width="1"/>
<text x="401.0" y="491" text-anchor="middle" font-size="11.5" style="fill:var(--secondary)">0</text>
<line x1="540.6" y1="472" x2="540.6" y2="477" style="stroke:var(--muted)" stroke-width="1"/>
<text x="540.6" y="491" text-anchor="middle" font-size="11.5" style="fill:var(--secondary)">1</text>
<line x1="680.2" y1="472" x2="680.2" y2="477" style="stroke:var(--muted)" stroke-width="1"/>
<text x="680.2" y="491" text-anchor="middle" font-size="11.5" style="fill:var(--secondary)">2</text>
<line x1="66" y1="472" x2="736" y2="472" style="stroke:var(--muted)" stroke-width="1"/>
<text x="401" y="509" text-anchor="middle" font-size="12" style="fill:var(--secondary)">offset from the LO (MHz)</text>
<text x="16" y="397" text-anchor="middle" font-size="12" style="fill:var(--secondary)" transform="rotate(-90 16 397)">dBc</text>
<clipPath id="c276"><rect x="66" y="320" width="670" height="154"/></clipPath>
<g clip-path="url(#c276)">
<polyline points="66.4,413.5 66.6,414.2 66.9,412.6 67.5,412.4 67.8,413.6 68.5,412.5 68.9,413.1 69.2,413.7 70.0,414.3 70.1,413.3 70.5,413.6 71.2,412.7 71.8,412.7 71.9,412.0 72.3,414.1 72.8,413.6 73.4,413.6 73.7,414.0 74.4,414.5 74.7,412.4 75.0,411.7 75.3,411.8 76.1,412.8 76.4,413.4 76.9,411.6 77.4,412.3 77.6,413.3 78.2,413.4 78.7,413.7 79.1,412.8 79.6,413.2 80.1,414.4 80.7,412.7 80.7,414.3 81.2,413.6 81.9,412.8 82.1,413.1 82.6,414.1 83.1,414.1 83.5,413.4 84.2,413.8 84.3,413.5 85.0,413.1 85.5,413.3 86.0,412.0 86.3,414.5 86.6,414.5 87.1,413.1 87.7,413.3 88.2,414.1 88.4,414.3 88.7,412.0 89.4,414.3 89.6,412.6 90.1,413.7 90.6,413.8 91.2,414.2 91.7,412.8 92.1,413.1 92.5,411.8 93.0,413.3 93.4,416.0 93.6,412.9 94.3,413.7 94.8,413.8 95.3,414.5 95.8,414.0 96.1,411.7 96.4,413.1 96.7,414.2 97.4,414.3 98.0,414.7 98.3,414.4 98.8,413.9 99.3,414.1 99.4,413.5 100.2,413.4 100.7,414.3 100.8,414.0 101.5,414.1 101.6,413.3 102.3,414.1 102.6,415.1 103.2,415.4 103.6,414.1 103.9,414.8 104.6,414.7 104.8,414.1 105.4,414.3 105.8,413.2 106.2,416.5 106.5,415.7 107.0,415.1 107.7,415.7 108.0,415.0 108.3,416.2 108.8,415.1 109.2,415.1 109.7,414.0 110.3,414.5 110.8,413.9 111.3,415.1 111.6,414.7 112.0,415.3 112.6,416.7 112.8,412.3 113.3,414.3 113.7,413.9 114.0,416.9 114.8,415.5 115.2,414.9 115.7,415.6 116.1,414.5 116.5,414.0 117.0,416.0 117.5,413.7 117.6,416.3 118.3,416.1 118.7,415.9 119.4,415.1 119.4,416.1 120.1,415.9 120.3,416.6 120.8,414.9 121.2,414.7 121.8,401.9 122.5,413.9 122.5,415.2 123.2,416.3 123.5,416.5 124.0,417.1 124.7,416.5 124.7,417.2 125.2,415.8 125.7,416.6 126.3,417.0 126.7,414.8 127.3,415.3 127.5,418.1 128.0,415.4 128.5,417.4 129.1,415.8 129.6,417.4 129.7,417.3 130.3,417.0 130.7,417.3 131.0,416.3 131.5,416.8 132.1,418.3 132.7,416.5 132.8,417.4 133.6,418.6 133.7,417.0 134.1,418.2 134.8,417.8 135.1,418.1 135.5,418.4 135.9,415.1 136.7,417.6 136.9,417.8 137.4,415.7 137.8,417.7 138.1,415.8 138.5,417.7 139.1,417.7 139.6,418.6 140.0,418.9 140.4,417.6 140.8,416.7 141.6,418.1 141.9,418.5 142.1,418.8 142.5,418.5 143.3,418.6 143.4,419.5 143.8,418.1 144.4,416.6 144.9,418.8 145.5,418.9 145.7,419.6 146.3,418.8 146.6,419.2 147.4,420.2 147.7,419.0 147.9,420.3 148.4,419.0 148.9,418.6 149.2,419.1 149.8,405.6 150.3,419.0 150.7,421.8 151.1,420.5 151.6,420.1 152.2,420.4 152.7,419.2 153.0,421.0 153.5,419.9 153.9,421.1 154.1,420.7 154.6,419.0 155.3,420.4 155.6,421.4 156.1,419.2 156.6,420.6 157.0,422.2 157.4,421.5 158.0,422.1 158.3,418.2 158.6,420.6 159.1,420.6 159.4,420.1 160.1,421.5 160.3,421.4 160.8,421.3 161.4,419.8 161.7,422.0 162.3,422.1 162.7,421.9 163.1,421.3 163.7,421.9 163.9,421.4 164.6,422.8 164.9,423.2 165.2,422.4 165.8,421.8 166.1,422.0 166.8,420.9 167.0,423.1 167.7,420.9 168.1,422.4 168.7,422.5 168.9,422.3 169.3,422.1 169.8,420.2 170.2,421.4 170.9,422.4 171.2,421.9 171.5,422.8 172.2,423.0 172.4,423.2 173.0,423.0 173.3,422.9 173.9,423.5 174.2,423.1 174.6,422.3 175.2,423.6 175.8,424.4 176.0,422.7 176.5,424.1 177.0,424.3 177.3,424.1 178.1,424.3 178.4,424.4 178.6,425.0 179.3,424.0 179.7,426.4 180.0,422.6 180.4,425.4 181.2,424.9 181.4,424.1 182.1,424.8 182.1,425.2 182.8,425.5 183.1,423.4 183.8,423.2 184.1,425.2 184.6,425.7 185.1,426.9 185.5,425.9 185.7,426.6 186.4,426.4 186.7,424.7 187.3,425.7 187.4,424.5 187.9,427.1 188.6,427.9 188.8,427.0 189.6,427.4 190.0,427.4 190.1,428.4 190.6,425.4 191.1,427.1 191.6,426.6 192.0,426.7 192.7,426.7 193.1,425.4 193.4,428.6 194.0,428.0 194.4,427.7 194.7,429.0 195.0,427.3 195.5,426.7 196.1,427.3 196.6,428.9 197.1,427.8 197.3,429.2 197.7,428.3 198.3,430.2 198.8,428.7 199.3,427.7 199.8,429.2 200.0,428.4 200.7,428.3 201.1,428.1 201.5,429.4 201.9,428.1 202.3,428.9 202.6,431.3 203.3,429.7 203.7,429.9 204.0,429.7 204.7,430.0 205.0,429.4 205.6,420.0 205.7,429.2 206.2,431.5 206.5,430.4 207.2,429.3 207.5,430.3 208.2,430.3 208.7,430.7 209.0,430.0 209.6,430.7 209.7,431.6 210.1,430.7 210.8,431.9 211.2,431.1 211.7,432.0 211.9,430.8 212.5,431.1 213.0,431.5 213.5,431.6 214.0,432.0 214.2,431.8 214.6,433.1 215.3,431.4 215.6,432.7 216.3,432.8 216.5,431.3 217.2,431.4 217.4,433.5 217.9,429.9 218.1,432.7 218.7,432.4 219.0,433.5 219.7,433.0 220.0,432.2 220.8,434.1 221.1,434.1 221.3,434.5 221.9,434.3 222.4,433.5 222.6,433.8 223.4,434.1 223.6,434.1 224.2,434.9 224.5,433.4 225.0,432.7 225.3,433.4 225.8,434.3 226.3,433.8 226.7,435.4 227.4,436.2 227.8,435.5 228.2,434.7 228.4,434.4 228.9,434.2 229.6,435.7 229.8,433.4 230.3,435.3 230.9,435.3 231.2,435.6 231.7,436.4 232.0,435.8 232.7,436.5 233.0,436.4 233.5,431.7 234.0,435.8 234.4,436.8 234.8,434.9 235.2,436.2 235.8,434.3 236.0,437.1 236.5,437.7 237.2,434.9 237.4,435.2 237.9,435.8 238.4,437.1 238.7,437.9 239.3,437.4 239.9,437.4 240.1,435.8 240.7,437.3 241.1,438.2 241.3,438.0 242.1,436.8 242.5,436.2 242.8,438.9 243.1,437.8 243.5,439.0 244.0,436.0 244.6,438.9 245.2,436.8 245.3,437.4 245.8,437.4 246.4,439.2 246.9,438.3 247.3,437.6 247.5,438.2 248.0,439.4 248.7,438.0 248.9,437.5 249.6,436.9 249.9,439.4 250.4,437.2 250.9,439.1 251.3,440.6 251.5,438.1 252.0,439.2 252.4,439.3 253.0,438.3 253.4,439.7 253.7,440.3 254.3,438.0 254.7,439.4 255.4,438.8 255.5,440.0 256.2,439.5 256.6,438.1 257.2,438.7 257.6,439.8 257.7,437.7 258.4,439.0 258.7,439.0 259.3,436.8 259.6,439.7 260.3,439.8 260.4,439.3 261.1,440.6 261.4,401.3 261.8,441.0 262.3,439.6 262.8,439.4 263.3,440.5 263.9,439.5 264.3,439.6 264.7,439.3 264.9,439.2 265.4,438.6 266.0,438.3 266.3,439.9 266.7,439.3 267.2,440.2 267.7,440.7 268.0,437.9 268.6,440.2 269.1,439.4 269.4,439.5 269.7,440.0 270.4,439.4 270.7,439.4 271.1,440.1 271.9,439.8 272.3,440.7 272.6,438.4 273.0,439.2 273.5,441.0 274.1,439.3 274.3,440.2 274.8,440.3 275.2,439.3 275.8,438.9 276.3,439.0 276.8,440.1 277.2,439.0 277.5,438.4 277.7,440.4 278.3,440.9 278.6,440.3 279.1,440.6 279.8,441.4 279.9,440.4 280.8,439.3 281.1,439.1 281.5,439.1 281.8,439.1 282.3,440.5 282.8,439.9 283.1,440.7 283.8,437.4 283.9,439.5 284.4,439.8 285.2,439.2 285.5,438.9 286.1,439.2 286.3,439.9 287.0,438.4 287.1,440.6 287.6,439.3 288.1,440.5 288.5,438.9 289.0,440.1 289.6,439.3 289.7,439.2 290.5,439.0 290.7,440.0 291.1,439.6 291.5,439.6 291.9,440.0 292.6,440.2 293.1,440.1 293.4,440.7 293.7,438.4 294.4,438.1 294.8,439.3 295.3,439.3 295.7,440.7 296.1,440.6 296.6,439.1 296.9,439.3 297.6,440.1 298.0,441.4 298.4,440.9 298.9,439.5 299.0,440.3 299.5,439.9 300.0,440.0 300.5,438.8 300.9,440.0 301.6,440.2 301.9,437.4 302.4,438.6 302.8,440.7 303.3,437.2 303.9,438.4 304.2,438.4 304.5,439.0 304.8,438.9 305.3,440.1 305.9,439.2 306.2,439.9 307.0,438.7 307.3,439.0 307.7,439.2 308.3,439.9 308.7,439.6 309.2,438.9 309.5,438.6 309.8,440.1 310.5,439.4 311.0,437.9 311.3,439.5 311.6,439.2 312.3,438.4 312.4,436.8 313.2,439.1 313.4,439.5 313.8,439.1 314.2,438.4 314.7,439.5 315.2,437.6 315.8,439.4 316.4,438.3 316.7,439.1 317.1,440.0 317.6,439.4 318.0,440.4 318.2,439.0 318.8,437.8 319.2,437.6 319.7,438.7 320.1,438.4 320.6,439.0 321.1,439.0 321.6,439.9 321.9,437.6 322.5,438.8 322.7,437.1 323.4,438.8 323.6,439.4 324.3,437.1 324.7,440.6 325.1,439.3 325.4,438.0 326.1,438.9 326.5,438.5 327.0,439.7 327.5,440.2 327.8,439.6 328.4,438.7 328.5,438.9 329.0,439.2 329.7,438.4 329.7,440.9 330.5,439.2 330.6,439.6 331.2,437.8 331.9,439.7 332.3,439.2 332.8,440.7 332.9,439.1 333.5,440.8 333.8,438.2 334.5,438.1 334.7,438.7 335.5,438.1 335.6,437.9 336.3,437.5 336.7,439.9 337.1,438.7 337.3,438.4 338.1,438.5 338.5,441.2 338.7,438.7 339.1,439.1 339.8,439.6 340.0,440.1 340.8,439.4 341.1,439.8 341.6,439.5 341.8,439.6 342.5,437.4 342.9,438.9 343.2,439.2 343.9,440.3 344.1,439.2 344.5,439.8 345.2,439.8 345.5,437.9 345.9,439.6 346.3,438.6 346.8,438.1 347.5,440.5 347.8,437.6 348.2,438.7 348.7,439.3 349.2,439.9 349.4,438.2 349.8,438.1 350.6,439.4 350.8,440.1 351.5,438.8 351.8,439.3 352.1,440.1 352.7,437.3 353.2,439.5 353.7,440.2 354.1,438.9 354.4,440.1 354.8,440.1 355.4,439.6 355.9,438.3 356.3,439.6 356.8,438.4 356.9,438.0 357.3,439.1 357.9,439.5 358.5,437.9 358.8,439.5 359.3,436.8 359.7,437.5 360.3,439.5 360.5,439.6 361.0,439.8 361.4,440.4 362.1,440.0 362.4,439.1 362.8,440.0 363.4,438.6 363.8,439.1 364.0,438.4 364.5,439.7 365.3,440.0 365.5,440.1 366.1,439.9 366.5,440.7 366.7,439.7 367.1,439.7 367.9,439.2 368.0,438.2 368.8,439.5 368.9,440.1 369.7,438.4 369.9,439.7 370.3,439.0 370.9,439.4 371.2,440.0 371.8,440.3 372.3,439.4 372.5,438.7 373.3,439.4 373.7,440.2 374.1,437.1 374.3,438.7 375.0,438.9 375.3,439.2 375.8,439.6 376.0,440.3 376.7,438.4 377.2,437.4 377.4,439.4 377.9,440.1 378.5,437.8 378.9,439.6 379.1,440.9 379.8,440.2 380.4,440.0 380.4,438.5 380.9,440.7 381.6,438.1 381.8,438.4 382.5,439.7 382.7,438.4 383.3,440.3 383.6,440.0 384.2,440.1 384.4,438.8 385.1,439.2 385.7,440.0 386.1,438.4 386.4,439.7 386.7,438.3 387.1,439.2 387.8,441.1 388.2,440.2 388.6,439.3 389.1,438.8 389.4,437.0 390.2,440.3 390.4,440.1 390.9,440.0 391.1,440.1 391.6,437.9 392.4,439.3 392.7,438.5 392.9,438.7 393.5,438.6 394.0,439.1 394.6,439.5 395.0,439.7 395.5,438.0 395.9,438.8 396.2,436.8 396.8,438.5 397.1,437.9 397.4,437.0 397.9,437.4 398.4,437.4 398.8,435.4 399.1,436.7 399.8,434.4 400.2,432.1 400.8,427.1 401.0,410.2 401.4,430.2 401.9,433.4 402.3,435.4 402.7,434.9 403.4,434.2 403.9,437.6 404.3,437.9 404.6,438.1 404.9,437.8 405.6,437.5 406.2,436.7 406.4,437.8 406.8,436.2 407.3,438.4 407.9,438.6 408.1,437.0 408.5,437.6 409.1,440.6 409.5,439.3 410.2,439.8 410.6,439.0 410.8,439.7 411.4,437.1 411.6,439.5 412.3,439.7 412.5,438.5 413.0,438.4 413.6,438.9 414.2,441.1 414.3,438.7 415.0,437.8 415.5,438.8 415.6,439.4 416.4,439.9 416.6,439.4 417.0,437.5 417.5,439.4 417.8,438.7 418.6,440.3 418.8,439.3 419.4,439.1 419.7,438.8 420.4,440.5 420.7,437.6 421.1,440.1 421.8,439.1 421.9,438.4 422.5,439.1 422.8,440.4 423.4,439.6 423.8,439.1 424.3,439.3 424.6,439.0 425.3,439.1 425.5,439.9 425.9,440.2 426.5,439.1 427.0,440.6 427.2,439.7 427.6,439.9 428.4,439.5 428.5,439.7 428.9,432.0 429.4,438.4 430.0,439.9 430.6,439.7 431.1,439.2 431.3,439.9 431.8,439.7 432.4,439.6 432.5,437.1 433.1,439.4 433.6,439.1 433.9,439.1 434.5,439.2 434.8,440.0 435.5,439.2 435.6,439.4 436.4,439.7 436.5,439.6 436.9,439.0 437.6,439.6 438.1,437.1 438.5,439.2 438.7,439.5 439.4,439.0 440.0,439.4 440.3,439.2 440.8,440.3 441.3,439.2 441.5,439.3 442.1,439.8 442.5,438.4 442.7,439.7 443.3,439.1 443.8,437.8 444.2,439.6 444.8,438.9 445.3,438.6 445.6,439.5 446.0,439.9 446.6,438.0 446.7,440.2 447.3,437.5 448.0,439.2 448.3,439.7 448.6,440.3 449.1,439.1 449.8,439.3 450.0,438.6 450.6,437.5 450.9,439.3 451.3,437.5 451.9,438.8 452.2,438.1 452.8,438.8 453.2,438.3 453.4,439.0 454.2,438.2 454.6,439.2 455.1,439.5 455.5,439.1 456.0,440.2 456.1,437.9 456.8,438.8 457.2,438.9 457.6,439.1 458.2,438.6 458.5,440.3 458.8,439.4 459.5,439.9 459.7,439.2 460.1,438.5 460.5,439.1 461.2,438.8 461.6,437.0 461.9,440.4 462.6,438.9 462.9,441.0 463.4,438.0 463.7,437.3 464.4,437.5 464.6,439.8 464.9,438.0 465.7,439.5 465.8,439.5 466.3,438.4 467.0,439.1 467.4,436.8 467.8,437.5 468.2,438.6 468.9,439.2 469.2,439.8 469.7,437.3 469.9,438.2 470.6,438.9 470.8,438.6 471.5,440.0 471.8,440.7 472.2,439.0 472.7,438.9 473.1,438.1 473.5,437.7 474.2,438.7 474.6,438.9 474.8,438.7 475.4,439.8 475.7,438.8 476.5,436.8 476.5,439.3 477.2,439.3 477.6,440.3 478.0,438.2 478.3,439.1 478.7,437.6 479.3,439.6 479.8,439.1 480.3,439.2 480.6,439.9 481.1,439.4 481.6,439.7 482.2,439.0 482.6,439.4 483.0,438.8 483.4,438.6 483.6,436.7 484.4,438.8 484.5,439.2 485.0,440.3 485.4,439.1 485.8,439.6 486.7,438.5 487.1,438.5 487.3,436.4 487.9,439.1 488.1,437.4 488.7,439.0 489.2,439.8 489.4,439.1 490.2,439.0 490.6,440.2 490.8,438.5 491.3,439.0 491.6,439.4 492.4,439.2 492.9,438.9 493.3,439.1 493.5,439.0 493.9,439.3 494.6,440.0 495.0,438.3 495.4,439.6 495.7,438.9 496.4,439.1 496.5,439.0 497.0,439.2 497.6,439.9 497.8,439.3 498.4,438.0 499.1,440.0 499.4,439.3 499.7,437.4 500.2,439.3 500.5,439.3 501.2,439.9 501.4,438.7 501.9,438.0 502.7,436.7 502.9,439.1 503.5,438.4 503.9,438.9 504.5,437.8 504.8,439.2 505.1,437.4 505.4,439.2 505.9,438.3 506.3,438.0 506.8,438.5 507.5,438.2 507.8,438.8 508.4,439.9 508.7,438.5 509.2,437.6 509.6,438.3 510.1,438.2 510.4,438.6 511.1,438.8 511.3,440.0 511.8,439.4 512.2,438.2 512.5,437.9 513.0,437.9 513.6,439.9 514.0,438.4 514.6,437.5 515.1,437.0 515.4,439.2 515.8,439.2 516.4,439.3 516.8,437.3 517.2,436.4 517.7,439.7 518.0,439.5 518.6,439.9 519.1,438.5 519.5,437.9 519.9,437.7 520.1,439.1 520.7,439.4 521.0,437.3 521.8,439.6 522.3,439.9 522.6,437.6 523.0,440.3 523.3,439.1 523.8,440.2 524.4,439.7 524.8,438.6 525.2,437.3 525.8,440.2 525.9,439.9 526.4,439.8 526.9,439.3 527.5,437.9 527.9,438.1 528.2,439.7 528.9,439.5 529.3,439.1 529.6,437.8 530.2,439.5 530.5,440.1 530.8,440.7 531.5,440.0 531.7,439.7 532.5,438.2 532.7,440.1 533.3,440.2 533.8,439.0 534.2,438.9 534.3,438.2 535.1,439.1 535.4,439.5 535.9,438.8 536.4,438.5 536.8,439.3 537.0,439.7 537.7,440.5 538.2,439.4 538.7,438.9 539.1,439.0 539.6,439.3 540.0,438.6 540.4,435.2 540.6,328.5 541.3,437.0 541.7,438.9 541.9,439.4 542.6,439.7 542.9,438.5 543.4,438.9 543.8,439.1 544.2,439.8 544.6,439.8 545.3,439.0 545.4,437.5 545.9,437.7 546.4,438.2 547.0,438.3 547.6,438.2 547.8,437.9 548.4,437.2 548.9,438.3 549.2,439.2 549.7,437.9 549.9,437.3 550.5,440.0 550.9,438.7 551.3,439.8 551.7,437.6 552.4,436.9 552.6,437.4 553.3,437.2 553.6,438.6 554.2,439.0 554.6,437.2 554.9,435.7 555.3,437.8 555.7,438.7 556.1,438.8 556.8,437.7 557.1,437.1 557.6,436.1 558.0,435.8 558.7,437.6 559.0,438.7 559.5,435.6 559.7,437.4 560.2,437.5 560.6,437.6 561.0,435.4 561.8,436.7 562.2,436.9 562.6,436.0 562.8,437.5 563.3,435.8 563.8,436.9 564.2,437.0 564.8,436.7 565.1,435.2 565.6,436.3 566.1,436.4 566.6,437.4 566.8,434.0 567.4,436.1 567.7,436.4 568.5,435.6 568.9,435.9 569.0,435.3 569.8,434.9 570.1,435.1 570.5,435.2 570.9,435.9 571.6,436.0 571.8,434.9 572.3,434.2 572.7,434.4 573.3,434.1 573.6,434.9 573.9,434.4 574.4,435.3 575.1,434.7 575.4,433.5 576.0,435.0 576.3,434.8 576.9,435.0 577.0,433.2 577.9,434.5 578.1,434.8 578.4,434.7 578.9,434.0 579.2,434.3 579.7,434.1 580.2,431.9 580.8,431.8 581.2,433.3 581.5,433.0 582.1,432.4 582.5,433.7 582.8,431.9 583.6,433.9 584.0,431.6 584.5,431.1 584.6,433.4 585.3,431.0 585.8,433.2 586.0,432.1 586.3,431.4 586.8,429.6 587.2,431.5 587.8,431.2 588.2,433.1 588.7,431.1 589.2,431.0 589.5,430.6 590.1,430.8 590.5,431.5 591.1,430.9 591.3,431.3 591.8,428.6 592.4,432.1 592.6,431.9 593.4,431.4 593.6,431.6 594.0,429.9 594.5,430.4 594.9,429.6 595.6,429.4 596.0,430.6 596.4,430.8 596.9,429.6 597.1,429.8 597.8,429.1 597.9,428.8 598.4,429.1 598.9,430.4 599.5,428.7 599.7,428.3 600.5,429.8 600.8,429.2 601.3,430.1 601.5,426.9 602.1,428.0 602.4,428.6 602.9,429.5 603.5,428.5 603.7,428.3 604.4,428.9 605.0,428.9 605.2,429.4 605.6,428.4 606.3,426.6 606.4,427.2 606.9,428.6 607.4,427.7 607.8,428.0 608.5,427.9 608.9,427.2 609.2,427.3 609.7,426.5 610.2,427.7 610.7,426.1 611.1,428.2 611.5,426.6 612.0,427.5 612.5,426.9 612.9,427.1 613.3,426.2 613.7,427.5 613.9,425.9 614.6,426.3 615.0,427.3 615.5,425.7 615.7,426.2 616.3,424.9 616.7,425.1 617.0,426.5 617.8,422.9 618.2,425.1 618.6,424.2 618.8,424.3 619.6,424.0 620.1,425.1 620.2,424.1 621.0,423.3 621.4,425.8 621.6,424.5 622.3,424.3 622.6,424.8 623.0,424.7 623.6,423.9 623.7,425.0 624.4,424.2 624.8,425.5 625.0,425.0 625.5,425.2 626.1,424.9 626.6,424.4 627.2,422.3 627.7,422.3 627.9,424.3 628.4,423.7 628.9,423.4 629.3,423.3 629.9,422.8 630.2,423.1 630.5,419.8 631.2,422.2 631.3,423.0 631.9,422.6 632.3,422.7 632.6,420.9 633.3,421.9 633.8,422.1 634.2,418.5 634.5,419.2 635.1,420.6 635.4,421.1 635.8,422.8 636.2,421.9 636.8,422.1 637.3,421.3 637.7,422.1 638.0,422.4 638.5,420.9 639.1,420.9 639.6,422.3 639.8,421.6 640.2,421.7 640.8,420.5 641.1,421.2 641.6,420.9 642.0,421.8 642.7,421.1 642.9,420.2 643.4,421.0 643.8,421.9 644.4,421.1 644.6,418.6 645.1,420.5 645.8,421.0 646.1,420.7 646.4,419.3 646.8,421.2 647.5,419.9 648.0,418.9 648.5,420.7 648.9,418.8 649.3,419.6 649.7,420.9 650.1,419.3 650.4,420.8 651.1,420.7 651.4,419.5 651.8,421.0 652.2,407.0 652.8,420.5 653.3,420.8 653.6,419.2 653.9,419.5 654.7,419.8 655.1,418.6 655.5,419.3 656.1,419.4 656.2,419.7 656.9,419.3 657.4,418.8 657.7,419.8 658.1,418.9 658.6,419.0 659.2,419.6 659.5,418.6 660.0,417.9 660.2,418.3 660.7,418.6 661.4,418.6 661.7,416.7 661.9,417.7 662.5,418.4 663.2,418.2 663.3,417.2 664.0,417.9 664.5,417.9 664.9,417.9 665.1,418.8 665.5,418.3 666.1,417.8 666.8,418.3 667.2,417.5 667.4,418.6 668.1,418.1 668.1,418.1 669.0,416.7 669.2,416.2 669.8,416.0 670.1,418.8 670.6,416.8 670.9,418.6 671.4,416.6 671.8,416.6 672.2,415.6 672.9,414.6 673.1,417.2 673.7,417.1 674.0,416.8 674.5,416.9 674.9,416.6 675.7,416.0 675.9,417.1 676.3,414.7 676.9,415.1 677.4,416.1 677.6,416.4 678.3,416.4 678.8,417.4 678.9,416.4 679.4,416.6 680.1,416.0 680.2,390.7 681.0,416.5 681.4,416.3 681.7,414.9 682.3,414.8 682.7,416.3 683.2,415.8 683.6,416.1 683.9,416.0 684.3,414.5 684.8,416.3 685.1,415.4 685.7,415.7 686.1,415.1 686.7,416.1 686.9,414.5 687.5,416.5 687.9,414.8 688.3,415.7 688.6,415.4 689.4,415.1 689.5,415.6 690.2,414.9 690.8,415.1 690.9,416.5 691.6,413.9 692.0,415.7 692.2,415.4 692.6,416.0 693.3,414.2 693.8,415.3 694.3,414.0 694.6,414.7 695.0,415.4 695.4,414.4 695.9,413.4 696.3,414.2 696.9,415.2 697.1,416.0 697.9,413.9 698.2,414.3 698.5,415.5 699.3,413.8 699.4,412.8 699.8,414.6 700.5,413.7 700.8,414.1 701.1,414.2 701.9,414.0 702.1,414.2 702.8,414.5 703.3,413.0 703.4,413.4 704.0,412.0 704.6,414.1 704.8,414.0 705.1,413.7 705.8,413.9 706.2,413.4 706.6,414.3 707.2,413.1 707.7,415.2 707.8,412.7 708.3,412.4 709.1,413.8 709.3,414.3 709.6,413.4 710.1,414.2 710.5,413.8 711.2,413.7 711.3,412.7 711.9,412.0 712.6,412.6 712.7,413.6 713.2,414.2 713.9,413.7 714.2,412.8 714.5,414.1 715.3,413.9 715.3,412.9 716.1,414.2 716.4,414.5 717.1,413.9 717.2,414.2 717.6,414.2 718.2,413.8 718.6,411.7 718.9,412.6 719.6,413.8 720.1,412.6 720.3,412.1 720.9,413.6 721.3,412.0 721.9,413.9 722.2,412.8 722.7,412.9 722.9,414.2 723.5,413.8 723.9,413.3 724.5,413.3 724.7,412.5 725.5,411.3 725.5,411.4 726.1,411.4 726.5,412.3 727.0,412.5 727.6,415.3 728.1,413.3 728.6,413.2 728.9,412.3 729.1,412.4 729.5,412.7 730.3,413.9 730.7,409.7 731.0,414.0 731.6,413.8 731.9,412.7 732.6,413.2 733.0,412.9" fill="none" style="stroke:var(--s1)" stroke-width="2" stroke-linejoin="round" stroke-linecap="round"/>
<line x1="66" y1="400.3" x2="736" y2="400.3" style="stroke:var(--muted)" stroke-width="1" stroke-dasharray="3 3"/>
<text x="732" y="396.3" text-anchor="end" font-size="11" style="fill:var(--muted)">spur limit, -55 dBc</text>
</g>
<text x="66" y="546" font-size="13" font-weight="600" style="fill:var(--primary)">2400 MHz: tone +0.12 Hz from where it was sent, worst spur -46.2 dBc</text>
<line x1="66" y1="701.0" x2="736" y2="701.0" style="stroke:var(--grid)" stroke-width="1"/>
<text x="58" y="705.0" text-anchor="end" font-size="11.5" style="fill:var(--secondary)">−100</text>
<line x1="66" y1="674.9" x2="736" y2="674.9" style="stroke:var(--grid)" stroke-width="1"/>
<text x="58" y="678.9" text-anchor="end" font-size="11.5" style="fill:var(--secondary)">−80</text>
<line x1="66" y1="648.8" x2="736" y2="648.8" style="stroke:var(--grid)" stroke-width="1"/>
<text x="58" y="652.8" text-anchor="end" font-size="11.5" style="fill:var(--secondary)">−60</text>
<line x1="66" y1="622.7" x2="736" y2="622.7" style="stroke:var(--grid)" stroke-width="1"/>
<text x="58" y="626.7" text-anchor="end" font-size="11.5" style="fill:var(--secondary)">−40</text>
<line x1="66" y1="596.6" x2="736" y2="596.6" style="stroke:var(--grid)" stroke-width="1"/>
<text x="58" y="600.6" text-anchor="end" font-size="11.5" style="fill:var(--secondary)">−20</text>
<line x1="66" y1="570.5" x2="736" y2="570.5" style="stroke:var(--grid)" stroke-width="1"/>
<text x="58" y="574.5" text-anchor="end" font-size="11.5" style="fill:var(--secondary)">0</text>
<line x1="121.8" y1="714" x2="121.8" y2="719" style="stroke:var(--muted)" stroke-width="1"/>
<text x="121.8" y="733" text-anchor="middle" font-size="11.5" style="fill:var(--secondary)">−2</text>
<line x1="261.4" y1="714" x2="261.4" y2="719" style="stroke:var(--muted)" stroke-width="1"/>
<text x="261.4" y="733" text-anchor="middle" font-size="11.5" style="fill:var(--secondary)">−1</text>
<line x1="401.0" y1="714" x2="401.0" y2="719" style="stroke:var(--muted)" stroke-width="1"/>
<text x="401.0" y="733" text-anchor="middle" font-size="11.5" style="fill:var(--secondary)">0</text>
<line x1="540.6" y1="714" x2="540.6" y2="719" style="stroke:var(--muted)" stroke-width="1"/>
<text x="540.6" y="733" text-anchor="middle" font-size="11.5" style="fill:var(--secondary)">1</text>
<line x1="680.2" y1="714" x2="680.2" y2="719" style="stroke:var(--muted)" stroke-width="1"/>
<text x="680.2" y="733" text-anchor="middle" font-size="11.5" style="fill:var(--secondary)">2</text>
<line x1="66" y1="714" x2="736" y2="714" style="stroke:var(--muted)" stroke-width="1"/>
<text x="401" y="751" text-anchor="middle" font-size="12" style="fill:var(--secondary)">offset from the LO (MHz)</text>
<text x="16" y="639" text-anchor="middle" font-size="12" style="fill:var(--secondary)" transform="rotate(-90 16 639)">dBc</text>
<clipPath id="c518"><rect x="66" y="562" width="670" height="154"/></clipPath>
<g clip-path="url(#c518)">
<polyline points="66.3,649.1 66.9,647.9 67.1,648.3 67.7,648.5 68.1,647.4 68.4,647.8 68.9,648.8 69.2,649.5 70.0,649.0 70.2,649.0 70.5,649.6 71.1,648.3 71.6,648.6 72.0,648.3 72.5,649.5 73.0,649.0 73.3,648.2 73.9,649.2 74.2,650.4 74.8,647.2 75.1,648.3 75.8,649.8 76.0,650.2 76.4,649.6 77.0,649.7 77.5,648.3 77.6,649.7 78.3,649.7 78.9,651.2 79.1,648.8 79.4,649.9 80.0,648.8 80.4,650.2 80.9,650.2 81.3,648.5 81.7,649.4 82.1,649.9 82.6,650.4 83.2,647.8 83.5,649.5 84.1,649.3 84.3,650.6 84.9,649.9 85.2,650.8 86.0,651.5 86.2,648.1 86.9,649.5 87.2,650.1 87.7,649.4 87.9,649.0 88.5,648.6 89.1,648.9 89.4,650.6 89.9,650.2 90.1,648.8 90.6,649.7 90.9,650.5 91.5,649.9 91.8,649.7 92.4,649.7 92.9,649.7 93.1,649.2 93.8,648.2 94.1,648.9 94.8,650.0 94.9,649.6 95.5,651.2 96.0,651.7 96.4,650.1 96.9,650.4 97.4,650.2 97.8,649.0 98.2,650.8 98.8,649.7 99.1,649.7 99.8,650.0 100.0,650.7 100.6,650.3 100.8,649.4 101.5,650.5 102.0,649.0 102.3,650.3 102.8,648.9 103.2,649.4 103.6,649.0 104.1,649.7 104.3,649.1 105.1,649.0 105.3,649.8 105.8,649.9 106.4,649.6 106.7,650.3 107.0,649.1 107.8,649.7 108.2,649.9 108.5,649.8 108.9,648.6 109.2,650.8 109.7,651.4 110.2,650.9 110.6,650.9 111.3,651.1 111.7,651.4 112.2,651.2 112.6,651.9 112.9,649.7 113.3,650.9 114.0,650.3 114.3,651.0 114.9,651.3 115.1,652.2 115.6,652.0 116.1,651.5 116.6,652.7 116.9,650.5 117.4,651.8 117.8,652.6 118.2,651.4 118.8,652.7 119.0,652.7 119.4,652.7 120.0,653.3 120.6,651.5 120.9,650.9 121.1,652.9 121.8,631.5 122.2,651.9 122.9,650.8 123.3,649.7 123.6,652.9 123.9,652.9 124.4,652.2 124.9,652.6 125.3,652.8 126.0,653.5 126.4,653.1 126.5,653.5 127.3,653.2 127.6,652.7 128.1,653.7 128.3,652.4 128.8,652.2 129.2,653.9 129.8,652.8 130.2,653.8 130.7,654.4 130.9,654.1 131.6,652.8 132.2,653.0 132.3,653.7 132.9,653.6 133.4,652.1 134.0,654.3 134.1,654.1 134.5,654.2 135.0,653.5 135.5,653.9 135.9,652.4 136.4,653.8 137.1,654.1 137.3,652.9 137.8,653.9 138.2,653.7 138.8,654.5 139.1,653.1 139.5,655.0 140.1,653.0 140.6,654.4 140.9,654.0 141.4,655.2 141.9,654.8 142.3,655.4 142.9,655.6 143.3,655.4 143.6,654.5 143.9,656.4 144.4,655.4 145.0,654.6 145.2,654.1 146.0,655.0 146.4,655.2 146.8,655.3 147.3,655.0 147.6,654.1 147.9,653.6 148.7,654.0 148.9,655.8 149.5,655.2 149.8,648.8 150.4,655.9 150.6,655.0 151.1,655.4 151.7,653.7 151.9,656.9 152.4,655.5 152.9,655.4 153.3,655.1 153.9,654.6 154.4,657.1 154.8,655.8 155.2,656.3 155.5,656.3 156.0,656.7 156.7,656.6 157.1,657.1 157.3,656.7 158.0,657.7 158.3,658.0 158.7,656.0 159.1,657.6 159.7,657.0 160.3,657.2 160.3,657.3 161.1,656.9 161.3,656.9 162.0,658.0 162.1,657.3 162.8,658.0 163.4,657.8 163.8,658.2 164.1,658.5 164.6,656.1 164.8,657.7 165.4,659.3 166.0,657.5 166.1,658.1 166.5,658.3 167.2,656.5 167.5,658.0 168.2,658.5 168.5,658.9 169.1,659.7 169.5,659.5 170.0,659.7 170.1,659.6 170.8,659.3 171.3,660.1 171.5,659.7 172.0,658.2 172.6,660.0 172.9,658.9 173.6,659.6 173.9,658.4 174.3,659.5 174.6,659.6 175.4,658.5 175.8,659.9 176.1,659.9 176.7,660.1 176.9,660.1 177.4,660.4 177.8,657.8 178.1,660.7 178.8,661.6 179.0,660.4 179.5,661.4 180.1,661.7 180.3,661.8 181.1,661.8 181.5,660.9 181.8,661.9 182.1,661.1 182.8,661.5 183.3,662.9 183.8,660.3 184.0,661.3 184.7,661.5 184.8,662.1 185.5,661.3 185.8,662.6 186.1,662.1 186.8,661.8 187.0,661.4 187.6,661.2 187.9,661.4 188.5,663.2 188.9,662.7 189.2,663.4 190.0,661.7 190.4,662.2 190.9,662.7 191.1,663.6 191.5,663.2 192.0,664.2 192.5,663.6 193.0,663.9 193.5,662.6 194.0,664.4 194.1,664.9 194.9,664.3 195.1,664.0 195.8,664.3 196.3,663.5 196.3,664.2 197.1,664.7 197.3,665.5 197.8,664.8 198.5,664.2 198.6,664.7 199.3,664.5 199.4,665.8 200.2,664.1 200.6,664.4 200.9,665.1 201.3,665.4 202.0,665.4 202.3,666.0 202.6,666.1 203.4,665.9 203.5,665.4 204.0,664.9 204.5,666.0 205.0,665.3 205.6,656.5 205.7,666.6 206.4,666.1 206.9,665.7 207.3,665.9 207.6,665.5 208.1,668.0 208.5,666.6 209.0,665.9 209.3,667.1 210.0,668.5 210.4,667.4 210.7,668.6 211.2,667.0 211.7,666.9 211.9,667.8 212.7,667.5 212.9,667.0 213.4,667.4 214.0,666.5 214.5,667.9 215.0,666.9 215.0,667.9 215.7,667.1 216.2,667.7 216.7,669.3 216.9,669.4 217.6,669.5 217.8,668.2 218.1,667.4 218.7,668.9 219.1,667.8 219.8,670.1 220.1,668.1 220.7,670.3 220.8,670.4 221.6,670.0 221.9,668.9 222.2,668.6 222.6,669.2 223.4,669.9 223.5,669.5 224.0,670.1 224.6,670.6 224.9,670.6 225.5,671.5 226.0,668.1 226.2,670.0 227.0,670.5 227.3,669.5 227.5,671.0 227.9,670.8 228.4,670.7 229.0,670.2 229.3,670.3 229.8,670.8 230.5,670.4 230.8,671.9 231.3,671.2 231.8,672.0 232.3,669.0 232.6,672.0 232.8,671.8 233.5,667.2 234.1,672.4 234.2,672.0 234.8,670.8 235.1,669.8 235.5,671.6 236.3,671.3 236.4,673.6 237.2,671.6 237.5,672.8 238.1,673.5 238.4,671.7 238.7,673.0 239.2,672.1 239.8,672.6 240.2,673.5 240.7,673.0 240.9,672.2 241.4,673.3 241.8,672.1 242.5,672.9 242.9,673.2 243.3,672.1 243.6,671.6 243.9,672.9 244.7,673.2 245.0,673.5 245.5,674.5 245.7,673.5 246.2,672.1 246.6,673.8 247.4,674.6 247.6,673.0 248.1,673.7 248.3,674.7 249.1,674.3 249.4,674.9 249.9,673.8 250.4,674.2 250.9,674.5 251.4,674.4 251.8,673.7 252.2,675.2 252.8,674.8 252.8,673.4 253.4,674.0 253.7,673.6 254.4,674.8 255.0,675.1 255.1,674.9 255.5,672.2 256.0,674.8 256.4,673.3 257.0,675.1 257.6,674.4 257.7,675.5 258.5,673.9 258.7,675.0 259.2,674.0 259.7,675.6 260.1,675.7 260.5,674.2 260.9,675.3 261.4,629.2 261.9,674.6 262.5,675.8 262.6,673.6 263.3,676.8 263.8,675.7 264.1,675.5 264.6,675.5 264.9,674.3 265.5,674.3 266.1,674.0 266.1,675.3 267.0,675.0 267.2,675.7 267.5,676.1 268.1,675.9 268.7,676.0 268.8,674.5 269.3,675.2 270.0,675.7 270.5,675.4 270.9,675.4 271.1,675.9 271.6,675.4 272.0,675.5 272.6,674.0 272.9,673.8 273.7,675.3 273.8,676.4 274.2,675.2 274.8,673.7 275.5,673.8 275.5,674.8 276.3,675.4 276.5,675.5 277.1,673.9 277.4,676.1 278.1,676.1 278.2,675.3 278.8,676.4 279.3,675.2 279.7,673.6 280.0,674.3 280.7,674.9 281.1,675.1 281.6,675.2 282.1,674.5 282.2,675.3 282.6,675.5 283.2,675.1 283.5,676.1 284.2,675.7 284.6,674.9 285.0,674.2 285.3,675.1 285.9,675.9 286.5,675.1 286.7,675.7 287.3,675.3 287.8,673.4 288.1,674.0 288.5,675.2 288.8,673.4 289.3,673.6 289.9,675.4 290.5,675.4 291.0,675.2 291.3,676.1 291.8,675.7 292.1,674.8 292.4,674.3 293.1,674.6 293.6,675.1 293.7,675.5 294.4,675.4 294.6,675.8 295.1,675.3 295.8,674.7 296.0,675.2 296.8,675.1 297.1,674.0 297.3,674.2 297.7,674.5 298.5,674.0 298.6,674.8 299.4,674.4 299.5,674.4 300.2,676.1 300.4,674.4 301.2,675.4 301.6,675.1 301.8,674.2 302.3,674.6 302.6,674.4 303.3,672.6 303.6,673.3 304.2,674.3 304.5,675.7 305.2,675.2 305.6,673.3 305.8,672.7 306.4,675.4 307.0,675.3 307.0,674.2 307.7,674.4 308.4,674.9 308.4,675.1 308.8,674.3 309.4,674.7 310.1,675.2 310.1,675.2 310.8,675.0 311.3,674.2 311.7,674.8 312.2,674.9 312.5,675.6 313.1,674.6 313.5,675.6 313.7,674.3 314.5,674.9 315.0,674.4 315.1,675.0 315.8,672.9 315.9,674.4 316.5,674.0 317.2,666.5 317.6,675.4 317.7,675.2 318.6,674.6 318.8,672.4 319.3,673.4 319.8,676.2 320.2,673.9 320.5,672.9 320.9,673.0 321.5,673.1 322.1,674.5 322.3,674.0 322.9,675.4 323.4,674.1 323.6,674.3 324.1,674.8 324.4,674.4 324.8,673.4 325.7,674.8 325.9,673.9 326.3,673.7 327.0,673.2 327.1,674.4 327.8,674.1 328.1,675.4 328.7,674.9 328.9,673.0 329.6,674.8 329.8,674.6 330.5,674.1 330.7,674.3 331.5,673.6 331.9,674.2 332.3,673.6 332.4,674.2 333.0,674.4 333.5,674.4 333.9,675.0 334.4,674.4 334.6,674.7 335.2,675.5 335.7,674.7 336.3,674.9 336.5,675.9 337.3,675.4 337.6,674.2 337.7,673.4 338.5,674.4 338.9,673.7 339.2,673.9 339.8,675.3 340.1,673.8 340.8,673.5 340.9,674.2 341.4,674.1 341.8,674.4 342.2,674.8 342.9,674.2 343.4,675.3 343.9,674.7 344.3,675.7 344.7,674.8 345.2,672.7 345.4,674.1 346.0,675.5 346.6,674.4 347.0,674.6 347.2,674.4 347.9,676.0 348.1,675.4 348.7,674.1 349.0,674.3 349.6,676.0 350.2,675.4 350.3,673.7 350.7,674.4 351.3,674.9 351.6,675.5 352.1,674.9 352.6,674.8 353.0,674.8 353.6,674.6 354.1,673.7 354.3,674.3 354.9,674.9 355.2,673.8 355.9,674.6 356.0,674.9 356.5,675.1 357.1,674.3 357.3,674.3 358.1,674.9 358.3,673.9 358.8,675.3 359.4,674.0 359.7,673.7 360.0,674.8 360.7,672.6 361.2,675.3 361.5,675.1 362.0,674.6 362.3,675.2 363.0,675.9 363.2,674.2 363.8,675.5 364.0,673.9 364.8,674.7 365.2,673.7 365.4,674.6 366.1,674.1 366.2,674.0 367.0,673.4 367.2,674.6 367.7,674.4 368.0,674.1 368.5,674.9 369.1,673.5 369.4,675.8 369.9,674.4 370.4,674.4 370.6,674.2 371.3,673.5 371.9,675.1 372.4,675.5 372.5,675.3 373.1,673.8 373.4,674.2 373.9,674.3 374.6,675.0 374.8,668.3 375.1,676.4 375.7,674.6 376.0,672.5 376.7,673.4 377.1,674.6 377.7,673.7 378.1,673.5 378.4,674.6 379.1,670.8 379.2,675.2 379.9,674.4 380.4,673.7 380.5,674.1 381.2,672.5 381.5,674.7 382.2,674.2 382.5,673.4 382.8,673.3 383.4,674.7 383.8,673.6 384.2,673.9 384.7,674.7 384.9,674.8 385.4,673.0 386.1,671.9 386.6,673.8 387.0,673.4 387.1,673.4 387.9,674.9 388.3,673.5 388.6,673.7 388.9,673.0 389.4,674.5 390.0,673.5 390.4,673.6 390.7,674.7 391.3,673.2 391.6,672.7 392.3,671.9 392.5,672.7 393.3,672.0 393.5,673.0 393.8,672.1 394.4,672.3 395.1,671.9 395.2,672.1 395.8,672.1 396.2,672.1 396.5,671.8 397.0,670.7 397.6,671.3 397.8,669.5 398.5,669.0 399.0,666.4 399.5,668.6 399.9,667.0 400.3,663.2 400.8,660.3 401.0,640.1 401.4,658.8 401.9,665.6 402.5,665.7 402.9,667.7 403.1,668.2 403.9,669.5 404.4,670.8 404.8,670.2 405.0,671.3 405.6,670.4 406.0,673.2 406.4,672.7 406.7,672.5 407.5,671.1 407.6,671.8 408.2,672.1 408.8,672.9 408.9,673.3 409.7,672.4 410.1,673.9 410.2,672.6 410.9,671.1 411.3,672.6 411.6,673.3 412.3,674.0 412.5,674.6 413.1,672.3 413.5,673.4 413.9,673.8 414.2,672.4 414.8,673.2 415.1,672.8 415.6,672.5 416.0,674.1 416.7,673.4 417.0,673.0 417.5,674.8 417.8,673.4 418.3,673.6 418.8,673.8 419.4,675.0 419.6,674.4 420.3,674.3 420.8,672.8 421.1,675.3 421.6,674.2 422.1,671.8 422.4,674.1 422.7,674.3 423.2,675.0 423.7,674.0 424.3,672.7 424.8,675.0 424.9,670.2 425.3,673.5 426.1,673.5 426.4,674.5 426.7,674.0 427.2,667.5 427.6,673.6 428.4,674.0 428.9,674.4 428.9,670.1 429.7,675.5 430.0,674.5 430.5,674.4 431.1,674.6 431.4,673.6 431.9,674.2 432.4,673.2 432.8,675.1 433.2,673.6 433.5,674.4 433.8,674.2 434.6,673.0 435.0,675.0 435.2,675.3 435.6,673.9 436.4,673.7 436.5,673.6 437.1,675.5 437.8,674.1 438.2,673.8 438.3,675.3 439.1,674.4 439.4,674.5 440.0,674.5 440.2,674.3 440.5,674.8 441.0,674.6 441.7,674.6 442.2,673.8 442.6,674.5 443.0,675.0 443.2,674.4 443.9,672.5 444.3,674.9 444.7,673.3 445.0,674.2 445.6,674.0 446.2,675.0 446.6,674.6 447.0,674.6 447.2,673.7 447.6,674.3 448.2,674.6 448.8,675.5 448.9,673.9 449.5,674.2 449.8,674.8 450.5,674.7 450.7,674.9 451.4,674.4 451.9,674.0 452.4,674.0 452.7,672.6 453.3,673.9 453.7,674.2 453.9,674.5 454.3,676.3 454.7,674.4 455.3,674.4 455.8,674.1 456.0,674.1 456.6,673.2 457.0,673.2 457.5,674.6 457.9,675.0 458.6,673.5 459.0,674.6 459.3,674.2 459.7,674.4 460.3,674.1 460.6,674.1 461.2,673.1 461.8,675.3 462.1,666.2 462.2,674.6 463.0,673.2 463.1,674.7 464.0,674.4 464.2,674.1 464.6,674.0 465.1,675.3 465.5,673.0 466.0,674.1 466.5,674.3 467.1,674.7 467.4,674.4 467.7,674.5 468.2,675.2 468.6,674.4 468.9,672.9 469.5,674.2 470.1,673.9 470.6,673.4 470.8,673.4 471.3,673.2 471.7,672.8 472.3,673.6 472.5,672.2 473.2,672.5 473.7,674.4 474.2,673.0 474.6,673.9 474.9,674.4 475.3,673.0 475.9,675.6 476.4,674.3 476.8,675.1 477.1,673.6 477.7,674.2 478.1,673.6 478.4,673.5 478.8,673.5 479.3,674.0 479.9,675.1 480.4,674.5 480.9,674.7 481.3,673.5 481.7,674.9 482.2,674.3 482.6,673.0 482.8,673.9 483.3,674.0 483.8,672.0 484.1,673.7 484.6,671.5 485.1,673.2 485.6,674.6 486.2,673.9 486.3,672.7 486.8,673.8 487.5,674.9 487.8,673.5 488.3,656.5 488.8,674.3 489.1,673.7 489.8,674.0 490.0,674.0 490.5,673.7 490.9,673.5 491.3,674.1 491.6,674.3 492.2,674.5 492.6,673.9 493.0,675.5 493.4,674.1 493.9,673.9 494.4,673.6 495.0,673.3 495.5,673.9 495.7,673.4 496.2,673.1 496.8,673.4 497.0,674.6 497.5,675.5 498.0,674.8 498.6,673.6 498.7,674.0 499.5,673.8 499.6,673.8 500.3,674.2 500.7,674.9 501.2,675.0 501.5,672.9 502.0,674.0 502.6,673.9 503.0,674.2 503.4,672.9 503.7,674.3 504.2,673.9 504.8,675.2 505.2,673.8 505.6,673.9 506.0,674.8 506.6,674.6 507.0,673.8 507.2,673.8 507.6,673.8 508.2,674.5 508.7,673.2 509.2,674.4 509.8,674.8 509.9,674.2 510.5,674.3 511.0,674.9 511.5,673.1 512.0,673.4 512.4,673.0 512.7,668.6 513.0,674.0 513.6,674.2 514.0,674.1 514.4,630.7 515.0,672.4 515.4,663.8 515.9,672.8 516.4,673.8 516.7,675.0 517.3,673.3 517.4,674.5 518.1,675.0 518.6,674.2 519.1,674.6 519.5,675.1 519.9,674.7 520.1,675.2 520.6,675.0 521.3,675.8 521.5,675.2 521.9,673.9 522.6,672.4 522.8,674.3 523.5,674.9 523.9,675.2 524.2,674.2 524.5,675.0 525.3,674.6 525.5,674.9 526.2,675.6 526.6,673.7 526.8,674.2 527.5,667.7 527.9,674.4 528.5,674.6 528.8,673.9 529.3,675.1 529.8,674.6 529.9,673.9 530.4,674.5 531.1,673.5 531.3,675.2 531.7,674.0 532.2,674.1 532.9,674.9 533.2,674.0 533.5,674.5 534.0,673.0 534.7,675.0 534.9,673.5 535.5,674.2 535.9,674.1 536.2,674.8 536.9,673.7 537.0,673.3 537.5,673.0 537.9,673.2 538.4,674.7 539.1,675.6 539.4,673.0 539.8,673.8 540.5,668.0 540.6,570.5 541.0,672.7 541.4,673.0 542.3,674.5 542.5,674.1 543.1,675.4 543.3,674.9 543.8,673.7 544.3,674.4 544.7,673.3 545.3,674.1 545.7,674.1 546.1,673.4 546.6,673.2 547.0,674.5 547.5,675.1 547.9,672.7 548.2,673.8 548.7,674.2 549.3,673.5 549.6,673.6 550.1,673.3 550.7,673.4 550.8,673.2 551.3,674.2 551.8,673.4 552.1,675.1 552.6,673.1 553.4,673.3 553.7,666.2 554.1,671.1 554.4,672.2 554.8,673.4 555.4,672.2 556.0,672.4 556.5,671.8 556.7,672.5 557.4,672.6 557.4,672.4 557.9,671.8 558.4,673.3 559.0,671.9 559.5,672.3 560.0,672.5 560.5,672.5 560.6,672.6 561.3,672.0 561.5,674.0 562.0,671.1 562.7,673.6 563.0,672.0 563.5,671.5 563.6,671.8 564.5,672.9 564.5,671.8 565.1,672.1 565.7,665.8 566.1,672.6 566.7,631.7 567.2,670.9 567.5,671.4 568.1,671.4 568.5,670.8 568.6,671.6 569.3,671.2 569.6,671.3 570.2,671.0 570.5,671.7 570.9,670.2 571.5,671.5 571.7,671.4 572.5,671.2 572.7,670.9 573.2,669.4 573.5,669.9 574.1,670.9 574.4,670.6 575.0,669.6 575.3,672.2 575.7,670.3 576.3,669.7 576.9,669.8 577.3,670.1 577.5,670.1 578.3,668.7 578.3,669.8 579.0,669.7 579.2,670.6 579.9,668.5 580.3,669.4 580.6,669.4 581.4,669.8 581.8,669.9 582.3,670.0 582.4,668.9 582.8,668.5 583.2,668.7 583.9,668.2 584.5,668.9 584.8,668.2 585.4,668.8 585.8,668.2 586.0,667.4 586.4,667.9 587.0,667.7 587.5,667.6 588.0,666.6 588.3,667.8 588.8,668.0 589.1,668.4 589.7,666.7 589.9,668.0 590.7,665.7 591.1,667.4 591.3,665.2 592.0,667.0 592.5,665.2 592.9,655.4 593.4,666.4 593.4,666.6 594.3,665.9 594.6,665.5 595.0,666.5 595.6,666.6 596.0,666.6 596.4,667.2 597.0,666.0 597.3,665.1 597.8,665.3 598.2,666.3 598.6,665.7 599.0,666.0 599.5,664.2 599.8,665.2 600.5,664.1 600.6,663.1 601.4,664.1 601.7,664.7 602.2,664.8 602.4,664.7 603.2,664.6 603.6,664.3 603.9,664.0 604.5,665.8 605.0,664.7 605.1,663.0 605.7,662.6 606.2,663.9 606.4,663.2 606.8,663.0 607.4,665.2 607.9,663.1 608.2,664.0 608.7,663.2 609.2,663.1 609.8,663.2 610.3,662.7 610.5,664.1 611.0,662.6 611.4,662.0 612.0,663.2 612.5,663.0 612.9,663.6 613.2,661.5 613.7,661.5 613.9,661.3 614.4,662.5 615.0,663.1 615.3,663.2 615.7,660.9 616.4,662.0 616.6,661.7 617.3,661.9 617.7,659.7 618.3,662.3 618.4,660.9 619.0,659.3 619.3,661.8 619.9,661.3 620.3,661.6 620.8,661.1 621.1,660.3 621.8,659.9 622.1,659.2 622.4,659.3 622.8,660.0 623.4,660.3 623.9,658.8 624.5,661.6 624.8,659.8 625.3,660.4 625.8,659.9 626.3,661.5 626.7,659.9 627.0,660.6 627.5,661.0 627.7,659.5 628.5,660.1 628.8,660.6 629.4,657.7 629.5,658.9 630.2,659.2 630.7,657.9 630.9,658.2 631.5,659.1 632.1,658.3 632.5,658.3 632.7,659.3 633.4,659.0 633.7,658.4 634.0,660.2 634.4,659.3 634.8,658.8 635.3,659.6 635.8,657.4 636.2,658.6 636.6,658.8 637.4,657.4 637.8,657.9 638.2,657.9 638.7,658.5 638.8,658.6 639.3,657.7 640.0,656.8 640.2,657.7 640.7,657.5 641.2,656.5 641.7,658.0 642.3,657.0 642.4,658.6 643.2,657.5 643.4,658.0 643.9,656.7 644.4,656.7 644.8,657.0 645.1,656.8 645.5,656.6 646.3,656.5 646.7,656.0 646.8,656.4 647.2,657.5 647.9,656.8 648.3,657.6 648.7,656.7 649.1,654.7 649.8,656.3 650.1,655.0 650.7,654.4 650.9,656.0 651.7,656.7 651.9,655.0 652.2,647.0 652.9,656.0 653.2,656.6 653.6,655.6 654.1,655.6 654.6,655.5 655.0,656.2 655.4,654.8 656.1,655.5 656.1,654.4 656.6,655.4 657.0,654.3 657.5,654.9 658.2,655.5 658.8,654.9 658.8,653.0 659.3,654.6 659.8,654.7 660.2,654.4 661.0,654.1 661.1,655.1 661.8,654.5 662.0,654.8 662.6,655.2 663.0,655.1 663.6,653.7 663.8,655.7 664.2,654.7 664.6,653.9 665.4,653.5 665.6,653.4 666.2,654.0 666.5,654.4 667.1,654.1 667.5,654.8 668.0,654.5 668.3,652.8 668.6,654.2 669.5,653.5 669.5,654.0 670.3,653.0 670.7,652.7 670.9,654.3 671.4,653.0 672.1,652.9 672.2,651.5 672.9,654.4 673.3,651.5 673.7,653.5 674.4,653.2 674.7,653.1 675.2,651.2 675.5,652.0 676.0,651.9 676.6,652.4 676.7,652.8 677.1,651.9 677.5,651.2 678.3,653.1 678.6,652.6 679.0,653.5 679.5,653.2 679.8,652.4 680.2,631.3 680.9,652.0 681.3,651.9 681.8,653.1 682.4,651.6 682.4,652.2 683.2,652.0 683.5,652.0 684.0,652.1 684.2,652.3 684.7,650.7 685.1,652.7 685.6,651.5 686.3,652.6 686.5,652.0 686.9,651.4 687.7,651.5 688.1,649.9 688.5,652.3 688.9,651.4 689.2,651.7 689.6,650.1 690.3,651.6 690.6,650.9 691.1,649.7 691.6,649.4 692.1,650.3 692.3,649.3 692.7,650.7 693.1,652.7 693.8,650.4 694.1,650.1 694.5,649.3 695.1,650.3 695.5,648.4 696.2,649.5 696.3,649.9 697.0,647.5 697.2,649.9 697.9,648.1 698.1,650.2 698.8,648.8 699.1,648.7 699.7,649.6 700.1,650.6 700.5,649.2 700.7,650.5 701.5,649.8 701.9,649.8 702.4,650.0 702.5,650.4 703.2,651.0 703.6,648.6 703.9,650.8 704.3,650.4 705.0,649.7 705.1,650.0 705.9,650.4 706.3,649.5 706.5,651.1 707.1,650.3 707.3,648.5 708.2,650.0 708.5,650.1 708.7,650.8 709.1,650.3 709.8,649.0 710.1,648.4 710.5,650.1 711.1,649.8 711.5,650.0 712.0,649.0 712.4,649.2 712.8,649.9 713.4,650.0 713.7,650.3 714.4,648.7 714.8,649.5 715.2,650.0 715.5,647.6 715.9,646.7 716.2,649.3 717.0,647.2 717.3,649.5 717.5,650.5 718.1,650.3 718.7,648.7 718.8,649.6 719.7,649.7 719.9,648.0 720.5,648.3 720.6,650.5 721.1,651.0 722.0,649.1 722.0,649.5 722.7,649.9 723.1,649.5 723.6,648.9 723.8,647.8 724.3,649.0 724.8,648.9 725.3,648.1 725.6,651.2 726.2,649.6 726.7,649.7 727.2,649.1 727.7,647.9 727.8,649.0 728.4,650.0 728.8,649.4 729.3,648.4 729.8,649.8 730.3,649.2 730.4,649.4 731.2,649.3 731.4,648.9 732.2,649.9 732.4,649.2 732.8,649.1" fill="none" style="stroke:var(--s1)" stroke-width="2" stroke-linejoin="round" stroke-linecap="round"/>
<line x1="66" y1="642.3" x2="736" y2="642.3" style="stroke:var(--muted)" stroke-width="1" stroke-dasharray="3 3"/>
<text x="732" y="638.3" text-anchor="end" font-size="11" style="fill:var(--muted)">spur limit, -55 dBc</text>
</g>
<text x="74" y="706" font-size="11" style="fill:var(--muted)">reference measured +13.3 ppm from 40 MHz over 30 s</text>
</svg>