<svg xmlns="http://www.w3.org/2000/svg" width="760" height="560" viewBox="0 0 760 560" font-family="-apple-system,BlinkMacSystemFont,Segoe UI,Helvetica,Arial,sans-serif" role="img" aria-label="Loopback tone level and image against frequency, two runs, both channels">
<rect width="760" height="560" fill="#1a1a19"/>
<line x1="62" y1="250.0" x2="690" y2="250.0" stroke="#33322f" stroke-width="1"/>
<text x="52" y="254.0" text-anchor="end" font-size="12" fill="#c3c2b7">-55</text>
<line x1="62" y1="220.0" x2="690" y2="220.0" stroke="#33322f" stroke-width="1"/>
<text x="52" y="224.0" text-anchor="end" font-size="12" fill="#c3c2b7">-50</text>
<line x1="62" y1="190.0" x2="690" y2="190.0" stroke="#33322f" stroke-width="1"/>
<text x="52" y="194.0" text-anchor="end" font-size="12" fill="#c3c2b7">-45</text>
<line x1="62" y1="160.0" x2="690" y2="160.0" stroke="#33322f" stroke-width="1"/>
<text x="52" y="164.0" text-anchor="end" font-size="12" fill="#c3c2b7">-40</text>
<line x1="62" y1="130.0" x2="690" y2="130.0" stroke="#33322f" stroke-width="1"/>
<text x="52" y="134.0" text-anchor="end" font-size="12" fill="#c3c2b7">-35</text>
<line x1="62" y1="100.0" x2="690" y2="100.0" stroke="#33322f" stroke-width="1"/>
<text x="52" y="104.0" text-anchor="end" font-size="12" fill="#c3c2b7">-30</text>
<line x1="62" y1="70.0" x2="690" y2="70.0" stroke="#33322f" stroke-width="1"/>
<text x="52" y="74.0" text-anchor="end" font-size="12" fill="#c3c2b7">-25</text>
<line x1="62" y1="40.0" x2="690" y2="40.0" stroke="#33322f" stroke-width="1"/>
<text x="52" y="44.0" text-anchor="end" font-size="12" fill="#c3c2b7">-20</text>
<line x1="85.3" y1="250" x2="85.3" y2="255" stroke="#33322f"/>
<text x="85.3" y="270" text-anchor="middle" font-size="12" fill="#c3c2b7">100</text>
<line x1="184.6" y1="250" x2="184.6" y2="255" stroke="#33322f"/>
<text x="184.6" y="270" text-anchor="middle" font-size="12" fill="#c3c2b7">200</text>
<line x1="315.9" y1="250" x2="315.9" y2="255" stroke="#33322f"/>
<text x="315.9" y="270" text-anchor="middle" font-size="12" fill="#c3c2b7">500</text>
<line x1="415.3" y1="250" x2="415.3" y2="255" stroke="#33322f"/>
<text x="415.3" y="270" text-anchor="middle" font-size="12" fill="#c3c2b7">1 GHz</text>
<line x1="514.6" y1="250" x2="514.6" y2="255" stroke="#33322f"/>
<text x="514.6" y="270" text-anchor="middle" font-size="12" fill="#c3c2b7">2</text>
<line x1="645.9" y1="250" x2="645.9" y2="255" stroke="#33322f"/>
<text x="645.9" y="270" text-anchor="middle" font-size="12" fill="#c3c2b7">5</text>
<text x="16" y="145" text-anchor="middle" font-size="12" fill="#c3c2b7" transform="rotate(-90 16 145)">tone level (dBFS)</text>
<line x1="62" y1="490.0" x2="690" y2="490.0" stroke="#33322f" stroke-width="1"/>
<text x="52" y="494.0" text-anchor="end" font-size="12" fill="#c3c2b7">-85</text>
<line x1="62" y1="461.7" x2="690" y2="461.7" stroke="#33322f" stroke-width="1"/>
<text x="52" y="465.7" text-anchor="end" font-size="12" fill="#c3c2b7">-75</text>
<line x1="62" y1="433.3" x2="690" y2="433.3" stroke="#33322f" stroke-width="1"/>
<text x="52" y="437.3" text-anchor="end" font-size="12" fill="#c3c2b7">-65</text>
<line x1="62" y1="405.0" x2="690" y2="405.0" stroke="#33322f" stroke-width="1"/>
<text x="52" y="409.0" text-anchor="end" font-size="12" fill="#c3c2b7">-55</text>
<line x1="62" y1="376.7" x2="690" y2="376.7" stroke="#33322f" stroke-width="1"/>
<text x="52" y="380.7" text-anchor="end" font-size="12" fill="#c3c2b7">-45</text>
<line x1="62" y1="348.3" x2="690" y2="348.3" stroke="#33322f" stroke-width="1"/>
<text x="52" y="352.3" text-anchor="end" font-size="12" fill="#c3c2b7">-35</text>
<line x1="62" y1="320.0" x2="690" y2="320.0" stroke="#33322f" stroke-width="1"/>
<text x="52" y="324.0" text-anchor="end" font-size="12" fill="#c3c2b7">-25</text>
<line x1="85.3" y1="490" x2="85.3" y2="495" stroke="#33322f"/>
<text x="85.3" y="510" text-anchor="middle" font-size="12" fill="#c3c2b7">100</text>
<line x1="184.6" y1="490" x2="184.6" y2="495" stroke="#33322f"/>
<text x="184.6" y="510" text-anchor="middle" font-size="12" fill="#c3c2b7">200</text>
<line x1="315.9" y1="490" x2="315.9" y2="495" stroke="#33322f"/>
<text x="315.9" y="510" text-anchor="middle" font-size="12" fill="#c3c2b7">500</text>
<line x1="415.3" y1="490" x2="415.3" y2="495" stroke="#33322f"/>
<text x="415.3" y="510" text-anchor="middle" font-size="12" fill="#c3c2b7">1 GHz</text>
<line x1="514.6" y1="490" x2="514.6" y2="495" stroke="#33322f"/>
<text x="514.6" y="510" text-anchor="middle" font-size="12" fill="#c3c2b7">2</text>
<line x1="645.9" y1="490" x2="645.9" y2="495" stroke="#33322f"/>
<text x="645.9" y="510" text-anchor="middle" font-size="12" fill="#c3c2b7">5</text>
<text x="16" y="405" text-anchor="middle" font-size="12" fill="#c3c2b7" transform="rotate(-90 16 405)">image (dBc)</text>
<text x="62" y="26" font-size="13" fill="#ffffff" font-weight="600">Tone level: repeats to about 1 dB</text>
<text x="62" y="306" font-size="13" fill="#ffffff" font-weight="600">Image: one dot per run, and it does not repeat</text>
<text x="376" y="552" text-anchor="middle" font-size="12" fill="#c3c2b7">LO frequency (MHz, log scale)</text>
<polygon points="85.3,98.0 184.6,75.0 295.6,71.6 342.1,73.4 395.0,66.8 415.3,72.6 473.4,74.8 514.6,83.1 540.7,98.0 572.7,120.5 594.8,129.1 614.0,152.1 645.9,151.7 667.2,170.7 667.2,170.7 645.9,151.7 614.0,152.2 594.8,129.4 572.7,120.5 540.7,98.1 514.6,83.1 473.4,74.8 415.3,72.6 395.0,69.0 342.1,73.5 295.6,77.4 184.6,77.1 85.3,105.2" fill="#3987e5" opacity="0.35"/>
<polyline points="85.3,101.6 184.6,76.1 295.6,74.5 342.1,73.4 395.0,67.9 415.3,72.6 473.4,74.8 514.6,83.1 540.7,98.0 572.7,120.5 594.8,129.2 614.0,152.2 645.9,151.7 667.2,170.7" fill="none" stroke="#3987e5" stroke-width="2" stroke-linejoin="round"/>
<text x="675.2" y="174.7" font-size="12" fill="#ffffff">RX1</text>
<circle cx="85.3" cy="418.3" r="3.5" fill="#3987e5"/>
<circle cx="184.6" cy="430.8" r="3.5" fill="#3987e5"/>
<circle cx="295.6" cy="416.7" r="3.5" fill="#3987e5"/>
<circle cx="342.1" cy="415.8" r="3.5" fill="#3987e5"/>
<circle cx="395.0" cy="452.4" r="3.5" fill="#3987e5"/>
<circle cx="415.3" cy="464.8" r="3.5" fill="#3987e5"/>
<circle cx="473.4" cy="458.4" r="3.5" fill="#3987e5"/>
<circle cx="514.6" cy="376.3" r="3.5" fill="#3987e5"/>
<circle cx="540.7" cy="384.9" r="3.5" fill="#3987e5"/>
<circle cx="572.7" cy="407.0" r="3.5" fill="#3987e5"/>
<circle cx="594.8" cy="423.6" r="3.5" fill="#3987e5"/>
<circle cx="614.0" cy="414.0" r="3.5" fill="#3987e5"/>
<circle cx="645.9" cy="400.7" r="3.5" fill="#3987e5"/>
<circle cx="667.2" cy="392.1" r="3.5" fill="#3987e5"/>
<circle cx="85.3" cy="391.5" r="3.5" fill="#3987e5"/>
<circle cx="184.6" cy="431.7" r="3.5" fill="#3987e5"/>
<circle cx="295.6" cy="403.9" r="3.5" fill="#3987e5"/>
<circle cx="342.1" cy="418.6" r="3.5" fill="#3987e5"/>
<circle cx="395.0" cy="458.3" r="3.5" fill="#3987e5"/>
<circle cx="415.3" cy="454.4" r="3.5" fill="#3987e5"/>
<circle cx="473.4" cy="473.3" r="3.5" fill="#3987e5"/>
<circle cx="514.6" cy="378.4" r="3.5" fill="#3987e5"/>
<circle cx="540.7" cy="394.7" r="3.5" fill="#3987e5"/>
<circle cx="572.7" cy="397.7" r="3.5" fill="#3987e5"/>
<circle cx="594.8" cy="402.6" r="3.5" fill="#3987e5"/>
<circle cx="614.0" cy="397.8" r="3.5" fill="#3987e5"/>
<circle cx="645.9" cy="397.5" r="3.5" fill="#3987e5"/>
<circle cx="667.2" cy="396.4" r="3.5" fill="#3987e5"/>
<polygon points="85.3,153.2 184.6,132.6 295.6,129.9 342.1,133.5 395.0,125.6 415.3,135.4 473.4,129.9 514.6,144.0 540.7,153.2 572.7,185.4 594.8,198.2 614.0,209.0 645.9,193.7 667.2,230.5 667.2,230.5 645.9,193.7 614.0,209.1 594.8,198.3 572.7,185.5 540.7,153.4 514.6,144.1 473.4,129.9 415.3,135.4 395.0,130.4 342.1,133.5 295.6,133.9 184.6,135.2 85.3,160.1" fill="#d95926" opacity="0.35"/>
<polyline points="85.3,156.6 184.6,133.9 295.6,131.9 342.1,133.5 395.0,128.0 415.3,135.4 473.4,129.9 514.6,144.0 540.7,153.3 572.7,185.5 594.8,198.2 614.0,209.1 645.9,193.7 667.2,230.5" fill="none" stroke="#d95926" stroke-width="2" stroke-linejoin="round"/>
<text x="675.2" y="234.5" font-size="12" fill="#ffffff">RX2</text>
<circle cx="85.3" cy="412.8" r="3.5" fill="#d95926"/>
<circle cx="184.6" cy="399.1" r="3.5" fill="#d95926"/>
<circle cx="295.6" cy="425.1" r="3.5" fill="#d95926"/>
<circle cx="342.1" cy="405.4" r="3.5" fill="#d95926"/>
<circle cx="395.0" cy="434.6" r="3.5" fill="#d95926"/>
<circle cx="415.3" cy="445.0" r="3.5" fill="#d95926"/>
<circle cx="473.4" cy="439.0" r="3.5" fill="#d95926"/>
<circle cx="514.6" cy="374.3" r="3.5" fill="#d95926"/>
<circle cx="540.7" cy="379.6" r="3.5" fill="#d95926"/>
<circle cx="572.7" cy="395.3" r="3.5" fill="#d95926"/>
<circle cx="594.8" cy="395.6" r="3.5" fill="#d95926"/>
<circle cx="614.0" cy="352.5" r="3.5" fill="#d95926"/>
<circle cx="645.9" cy="357.3" r="3.5" fill="#d95926"/>
<circle cx="667.2" cy="339.4" r="3.5" fill="#d95926"/>
<circle cx="85.3" cy="371.8" r="3.5" fill="#d95926"/>
<circle cx="184.6" cy="440.1" r="3.5" fill="#d95926"/>
<circle cx="295.6" cy="421.3" r="3.5" fill="#d95926"/>
<circle cx="342.1" cy="428.6" r="3.5" fill="#d95926"/>
<circle cx="395.0" cy="442.0" r="3.5" fill="#d95926"/>
<circle cx="415.3" cy="416.4" r="3.5" fill="#d95926"/>
<circle cx="473.4" cy="403.2" r="3.5" fill="#d95926"/>
<circle cx="514.6" cy="383.7" r="3.5" fill="#d95926"/>
<circle cx="540.7" cy="407.6" r="3.5" fill="#d95926"/>
<circle cx="572.7" cy="372.3" r="3.5" fill="#d95926"/>
<circle cx="594.8" cy="374.9" r="3.5" fill="#d95926"/>
<circle cx="614.0" cy="350.5" r="3.5" fill="#d95926"/>
<circle cx="645.9" cy="358.0" r="3.5" fill="#d95926"/>
<circle cx="667.2" cy="339.5" r="3.5" fill="#d95926"/>
<circle cx="78" cy="467.5833333333333" r="3.5" fill="#3987e5"/>
<text x="88" y="471.5833333333333" font-size="12" fill="#ffffff">RX1 (20 dB pad)</text>
<circle cx="78" cy="484.5833333333333" r="3.5" fill="#d95926"/>
<text x="88" y="488.5833333333333" font-size="12" fill="#ffffff">RX2 (30 dB pad)</text>
<text x="72" y="235.0" font-size="11.5" fill="#8a8985">both TX at &#8722;40 dB, both RX at 20 dB gain; RX2 reads ~10 dB lower: its pad is 10 dB bigger</text>
</svg>